<svg xmlns="http://www.w3.org/2000/svg" xmlns:xlink="http://www.w3.org/1999/xlink" width="500" zoomAndPan="magnify" viewBox="0 0 375 374.999991" height="500" preserveAspectRatio="xMidYMid meet" version="1.0"><defs><g/><clipPath id="8d368f6f8b"><path d="M 179 129.265625 L 230 129.265625 L 230 195 L 179 195 Z M 179 129.265625 " clip-rule="nonzero"/></clipPath><clipPath id="949227c84a"><path d="M 134 194 L 171 194 L 171 197.347656 L 134 197.347656 Z M 134 194 " clip-rule="nonzero"/></clipPath><clipPath id="b19c8bb333"><path d="M 127.695312 130 L 178 130 L 178 197 L 127.695312 197 Z M 127.695312 130 " clip-rule="nonzero"/></clipPath><clipPath id="c220e42c97"><path d="M 154.105469 129.265625 L 205 129.265625 L 205 195 L 154.105469 195 Z M 154.105469 129.265625 " clip-rule="nonzero"/></clipPath></defs><g fill="#8c52ff" fill-opacity="1"><g transform="translate(63.060197, 244.869126)"><g><path d="M 2.4375 -42.375 L 21.921875 -42.375 C 22.492188 -42.375 22.78125 -42.09375 22.78125 -41.53125 L 22.78125 -36.234375 C 22.78125 -35.671875 22.492188 -35.390625 21.921875 -35.390625 L 15.78125 -35.390625 L 15.78125 -0.84375 C 15.78125 -0.28125 15.5 0 14.9375 0 L 9.421875 0 C 8.859375 0 8.578125 -0.28125 8.578125 -0.84375 L 8.578125 -35.390625 L 2.4375 -35.390625 C 1.875 -35.390625 1.59375 -35.671875 1.59375 -36.234375 L 1.59375 -41.53125 C 1.59375 -42.09375 1.875 -42.375 2.4375 -42.375 Z M 2.4375 -42.375 "/></g></g></g><g fill="#8c52ff" fill-opacity="1"><g transform="translate(87.42041, 244.869126)"><g><path d="M 24.421875 -34.75 L 24.421875 -21.828125 C 24.421875 -18.296875 23.128906 -15.960938 20.546875 -14.828125 L 24.203125 -0.953125 C 24.378906 -0.316406 24.132812 0 23.46875 0 L 17.953125 0 C 17.460938 0 17.164062 -0.242188 17.0625 -0.734375 L 13.5 -14.203125 L 9.859375 -14.203125 L 9.859375 -0.84375 C 9.859375 -0.28125 9.570312 0 9 0 L 3.5 0 C 2.925781 0 2.640625 -0.28125 2.640625 -0.84375 L 2.640625 -41.53125 C 2.640625 -42.09375 2.925781 -42.375 3.5 -42.375 L 16.796875 -42.375 C 19.296875 -42.375 21.191406 -41.726562 22.484375 -40.4375 C 23.773438 -39.15625 24.421875 -37.257812 24.421875 -34.75 Z M 9.859375 -21.1875 L 15.09375 -21.1875 C 16.507812 -21.1875 17.21875 -21.894531 17.21875 -23.3125 L 17.21875 -33.265625 C 17.21875 -34.679688 16.507812 -35.390625 15.09375 -35.390625 L 9.859375 -35.390625 Z M 9.859375 -21.1875 "/></g></g></g><g fill="#8c52ff" fill-opacity="1"><g transform="translate(114.48144, 244.869126)"><g><path d="M 28.171875 0 L 22.5625 0 C 22.101562 0 21.820312 -0.242188 21.71875 -0.734375 L 20.234375 -8.46875 L 10.8125 -8.46875 L 9.375 -0.734375 C 9.269531 -0.242188 8.988281 0 8.53125 0 L 2.859375 0 C 2.222656 0 1.992188 -0.300781 2.171875 -0.90625 L 10.96875 -41.640625 C 11.070312 -42.128906 11.367188 -42.375 11.859375 -42.375 L 19.234375 -42.375 C 19.722656 -42.375 20.019531 -42.128906 20.125 -41.640625 L 28.921875 -0.90625 C 29.023438 -0.300781 28.773438 0 28.171875 0 Z M 18.90625 -14.625 L 15.515625 -33.109375 L 12.125 -14.625 Z M 18.90625 -14.625 "/></g></g></g><g fill="#8c52ff" fill-opacity="1"><g transform="translate(145.514244, 244.869126)"><g><path d="M 18.90625 -42.375 L 24.421875 -42.375 C 24.984375 -42.375 25.265625 -42.09375 25.265625 -41.53125 L 25.265625 -0.84375 C 25.265625 -0.28125 24.984375 0 24.421875 0 L 19.171875 0 C 18.679688 0 18.363281 -0.226562 18.21875 -0.6875 L 10.109375 -23.3125 L 9.859375 -23.3125 L 9.859375 -0.84375 C 9.859375 -0.28125 9.570312 0 9 0 L 3.5 0 C 2.925781 0 2.640625 -0.28125 2.640625 -0.84375 L 2.640625 -41.53125 C 2.640625 -42.09375 2.925781 -42.375 3.5 -42.375 L 8.734375 -42.375 C 9.234375 -42.375 9.550781 -42.144531 9.6875 -41.6875 L 17.75 -19.171875 L 18.0625 -19.171875 L 18.0625 -41.53125 C 18.0625 -42.09375 18.34375 -42.375 18.90625 -42.375 Z M 18.90625 -42.375 "/></g></g></g><g fill="#8c52ff" fill-opacity="1"><g transform="translate(173.422583, 244.869126)"><g><path d="M 3.921875 -42.375 L 23.828125 -42.375 C 24.679688 -42.375 24.945312 -41.953125 24.625 -41.109375 L 11.4375 -6.984375 L 23.09375 -6.984375 C 23.65625 -6.984375 23.9375 -6.703125 23.9375 -6.140625 L 23.9375 -0.90625 C 23.9375 -0.375 23.65625 -0.0703125 23.09375 0 L 2.484375 0 C 2.066406 0 1.796875 -0.117188 1.671875 -0.359375 C 1.546875 -0.609375 1.550781 -0.910156 1.6875 -1.265625 L 14.890625 -35.328125 L 3.921875 -35.328125 C 3.359375 -35.328125 3.078125 -35.609375 3.078125 -36.171875 L 3.078125 -41.46875 C 3.078125 -42 3.359375 -42.300781 3.921875 -42.375 Z M 3.921875 -42.375 "/></g></g></g><g fill="#8c52ff" fill-opacity="1"><g transform="translate(200.271782, 244.869126)"><g><path d="M 3.5 -42.375 L 9 -42.375 C 9.570312 -42.375 9.859375 -42.09375 9.859375 -41.53125 L 9.859375 -0.84375 C 9.859375 -0.28125 9.570312 0 9 0 L 3.5 0 C 2.925781 0 2.640625 -0.28125 2.640625 -0.84375 L 2.640625 -41.53125 C 2.640625 -42.09375 2.925781 -42.375 3.5 -42.375 Z M 3.5 -42.375 "/></g></g></g><g fill="#8c52ff" fill-opacity="1"><g transform="translate(212.769634, 244.869126)"><g><path d="M 2.4375 -42.375 L 21.921875 -42.375 C 22.492188 -42.375 22.78125 -42.09375 22.78125 -41.53125 L 22.78125 -36.234375 C 22.78125 -35.671875 22.492188 -35.390625 21.921875 -35.390625 L 15.78125 -35.390625 L 15.78125 -0.84375 C 15.78125 -0.28125 15.5 0 14.9375 0 L 9.421875 0 C 8.859375 0 8.578125 -0.28125 8.578125 -0.84375 L 8.578125 -35.390625 L 2.4375 -35.390625 C 1.875 -35.390625 1.59375 -35.671875 1.59375 -36.234375 L 1.59375 -41.53125 C 1.59375 -42.09375 1.875 -42.375 2.4375 -42.375 Z M 2.4375 -42.375 "/></g></g></g><g fill="#8c52ff" fill-opacity="1"><g transform="translate(237.129847, 244.869126)"><g><path d="M 23.890625 -34.75 L 23.890625 -25 C 23.890625 -24.007812 23.570312 -23.175781 22.9375 -22.5 C 22.300781 -21.832031 21.503906 -21.410156 20.546875 -21.234375 L 20.546875 -21.140625 C 21.503906 -20.992188 22.300781 -20.578125 22.9375 -19.890625 C 23.570312 -19.203125 23.890625 -18.363281 23.890625 -17.375 L 23.890625 -7.625 C 23.890625 -5.15625 23.234375 -3.265625 21.921875 -1.953125 C 20.617188 -0.648438 18.710938 0 16.203125 0 L 10.0625 0 C 7.664062 0 5.828125 -0.632812 4.546875 -1.90625 C 3.273438 -3.175781 2.640625 -5.015625 2.640625 -7.421875 L 2.640625 -9.15625 C 2.640625 -9.863281 2.992188 -10.21875 3.703125 -10.21875 L 8.796875 -10.21875 C 9.503906 -10.21875 9.859375 -9.863281 9.859375 -9.15625 L 9.859375 -6.984375 L 15.78125 -6.984375 C 16.488281 -6.984375 16.84375 -7.335938 16.84375 -8.046875 L 16.84375 -15.578125 C 16.84375 -16.984375 16.132812 -17.6875 14.71875 -17.6875 L 8.46875 -17.6875 C 7.769531 -17.6875 7.421875 -18.039062 7.421875 -18.75 L 7.421875 -23.625 C 7.421875 -24.332031 7.769531 -24.6875 8.46875 -24.6875 L 14.71875 -24.6875 C 16.132812 -24.6875 16.84375 -25.375 16.84375 -26.75 L 16.84375 -34.328125 C 16.84375 -35.035156 16.488281 -35.390625 15.78125 -35.390625 L 9.859375 -35.390625 L 9.859375 -33.21875 C 9.859375 -32.507812 9.503906 -32.15625 8.796875 -32.15625 L 3.703125 -32.15625 C 2.992188 -32.15625 2.640625 -32.507812 2.640625 -33.21875 L 2.640625 -35.390625 C 2.640625 -37.679688 3.273438 -39.414062 4.546875 -40.59375 C 5.828125 -41.78125 7.664062 -42.375 10.0625 -42.375 L 16.203125 -42.375 C 18.710938 -42.375 20.617188 -41.726562 21.921875 -40.4375 C 23.234375 -39.15625 23.890625 -37.257812 23.890625 -34.75 Z M 23.890625 -34.75 "/></g></g></g><g fill="#8c52ff" fill-opacity="1"><g transform="translate(263.661289, 244.869126)"><g><path d="M 11.8125 -26 L 16.421875 -26 C 18.816406 -26 20.648438 -25.363281 21.921875 -24.09375 C 23.191406 -22.820312 23.828125 -20.988281 23.828125 -18.59375 L 23.828125 -7.421875 C 23.828125 -5.015625 23.191406 -3.175781 21.921875 -1.90625 C 20.648438 -0.632812 18.816406 0 16.421875 0 L 10.0625 0 C 7.664062 0 5.828125 -0.632812 4.546875 -1.90625 C 3.273438 -3.175781 2.640625 -5.015625 2.640625 -7.421875 L 2.640625 -21.03125 C 2.640625 -21.519531 2.679688 -21.96875 2.765625 -22.375 C 2.859375 -22.78125 2.992188 -23.210938 3.171875 -23.671875 L 10.703125 -41.578125 C 10.910156 -42.109375 11.316406 -42.375 11.921875 -42.375 L 17.421875 -42.375 C 18.304688 -42.375 18.570312 -41.96875 18.21875 -41.15625 Z M 11.765625 -6.984375 L 14.71875 -6.984375 C 16.132812 -6.984375 16.84375 -7.691406 16.84375 -9.109375 L 16.84375 -16.890625 C 16.84375 -18.304688 16.132812 -19.015625 14.71875 -19.015625 L 11.765625 -19.015625 C 10.347656 -19.015625 9.640625 -18.304688 9.640625 -16.890625 L 9.640625 -9.109375 C 9.640625 -7.691406 10.347656 -6.984375 11.765625 -6.984375 Z M 11.765625 -6.984375 "/></g></g></g><g fill="#8c52ff" fill-opacity="1"><g transform="translate(290.139803, 244.869126)"><g><path d="M 2.640625 -7.625 L 2.640625 -34.75 C 2.640625 -37.257812 3.289062 -39.15625 4.59375 -40.4375 C 5.90625 -41.726562 7.800781 -42.375 10.28125 -42.375 L 16.203125 -42.375 C 18.710938 -42.375 20.609375 -41.726562 21.890625 -40.4375 C 23.179688 -39.15625 23.828125 -37.257812 23.828125 -34.75 L 23.828125 -7.625 C 23.828125 -5.15625 23.179688 -3.265625 21.890625 -1.953125 C 20.609375 -0.648438 18.710938 0 16.203125 0 L 10.28125 0 C 7.800781 0 5.90625 -0.648438 4.59375 -1.953125 C 3.289062 -3.265625 2.640625 -5.15625 2.640625 -7.625 Z M 11.8125 -6.828125 L 14.890625 -6.828125 C 16.296875 -6.828125 17 -7.535156 17 -8.953125 L 17 -33.421875 C 17 -34.835938 16.296875 -35.546875 14.890625 -35.546875 L 11.8125 -35.546875 C 10.394531 -35.546875 9.6875 -34.835938 9.6875 -33.421875 L 9.6875 -8.953125 C 9.6875 -7.535156 10.394531 -6.828125 11.8125 -6.828125 Z M 11.8125 -6.828125 "/></g></g></g><path stroke-linecap="butt" transform="matrix(0.75, 0, 0, 0.75, 49.223204, 185.528234)" fill="none" stroke-linejoin="miter" d="M 18.566979 19.498814 L 44.56698 19.498814 C 45.31698 19.498814 45.69198 19.879022 45.69198 20.639439 L 45.69198 27.691523 C 45.69198 28.446731 45.31698 28.82694 44.56698 28.82694 L 36.37948 28.82694 L 36.37948 74.863401 C 36.37948 75.618609 35.999271 75.998818 35.244063 75.998818 L 27.895104 75.998818 C 27.150312 75.998818 26.775312 75.618609 26.775312 74.863401 L 26.775312 28.82694 L 18.566979 28.82694 C 17.822187 28.82694 17.447187 28.446731 17.447187 27.691523 L 17.447187 20.639439 C 17.447187 19.879022 17.822187 19.498814 18.566979 19.498814 Z M 80.358649 29.67069 L 80.358649 46.894649 C 80.358649 51.608191 78.639899 54.717566 75.202399 56.222775 L 80.082608 74.722776 C 80.311774 75.576943 79.988858 75.998818 79.103441 75.998818 L 71.754482 75.998818 C 71.087815 75.998818 70.686774 75.670693 70.551357 75.019651 L 65.806565 57.071733 L 60.94719 57.071733 L 60.94719 74.863401 C 60.94719 75.618609 60.566981 75.998818 59.806565 75.998818 L 52.462814 75.998818 C 51.718022 75.998818 51.343022 75.618609 51.343022 74.863401 L 51.343022 20.639439 C 51.343022 19.879022 51.718022 19.498814 52.462814 19.498814 L 70.186774 19.498814 C 73.530524 19.498814 76.061774 20.363397 77.775316 22.087356 C 79.499274 23.800898 80.358649 26.326939 80.358649 29.67069 Z M 60.94719 47.759233 L 67.926357 47.759233 C 69.811774 47.759233 70.754482 46.816524 70.754482 44.931107 L 70.754482 31.655065 C 70.754482 29.769648 69.811774 28.82694 67.926357 28.82694 L 60.94719 28.82694 Z M 121.45761 75.998818 L 113.973235 75.998818 C 113.369068 75.998818 112.98886 75.670693 112.837818 75.019651 L 110.874276 64.70715 L 98.301359 64.70715 L 96.3899 75.019651 C 96.249275 75.670693 95.874275 75.998818 95.249275 75.998818 L 87.7024 75.998818 C 86.848233 75.998818 86.54615 75.597776 86.785733 74.795693 L 98.509692 20.498814 C 98.650317 19.832147 99.051359 19.498814 99.718026 19.498814 L 109.525318 19.498814 C 110.181568 19.498814 110.577401 19.832147 110.718026 20.498814 L 122.441985 74.795693 C 122.593027 75.597776 122.264902 75.998818 121.45761 75.998818 Z M 109.098235 56.51965 L 104.577401 31.863398 L 100.061776 56.51965 Z M 150.473237 19.498814 L 157.816988 19.498814 C 158.577404 19.498814 158.957613 19.879022 158.957613 20.639439 L 158.957613 74.863401 C 158.957613 75.618609 158.577404 75.998818 157.816988 75.998818 L 150.837821 75.998818 C 150.171154 75.998818 149.744071 75.696734 149.561779 75.087359 L 138.749278 44.931107 L 138.405528 44.931107 L 138.405528 74.863401 C 138.405528 75.618609 138.02532 75.998818 137.264903 75.998818 L 129.921153 75.998818 C 129.176361 75.998818 128.801361 75.618609 128.801361 74.863401 L 128.801361 20.639439 C 128.801361 19.879022 129.176361 19.498814 129.921153 19.498814 L 136.921153 19.498814 C 137.577403 19.498814 138.004486 19.806106 138.197195 20.415481 L 148.921154 50.431108 L 149.353446 50.431108 L 149.353446 20.639439 C 149.353446 19.879022 149.728446 19.498814 150.473237 19.498814 Z M 167.702405 19.498814 L 194.25449 19.498814 C 195.389907 19.498814 195.749282 20.071731 195.322199 21.207147 L 177.738864 66.670692 L 193.270115 66.670692 C 194.020115 66.670692 194.389907 67.0509 194.389907 67.811317 L 194.389907 74.795693 C 194.389907 75.504026 194.020115 75.910276 193.270115 75.998818 L 165.806572 75.998818 C 165.228447 75.998818 164.863863 75.837359 164.702405 75.519651 C 164.540947 75.186318 164.551363 74.780068 164.738863 74.311318 L 182.322198 28.894648 L 167.702405 28.894648 C 166.952405 28.894648 166.582613 28.519648 166.582613 27.759231 L 166.582613 20.707147 C 166.582613 19.993606 166.952405 19.592564 167.702405 19.498814 Z M 202.931574 19.498814 L 210.275325 19.498814 C 211.035741 19.498814 211.41595 19.879022 211.41595 20.639439 L 211.41595 74.863401 C 211.41595 75.618609 211.035741 75.998818 210.275325 75.998818 L 202.931574 75.998818 C 202.186782 75.998818 201.811782 75.618609 201.811782 74.863401 L 201.811782 20.639439 C 201.811782 19.879022 202.186782 19.498814 202.931574 19.498814 Z M 218.181575 19.498814 L 244.181577 19.498814 C 244.926368 19.498814 245.301368 19.879022 245.301368 20.639439 L 245.301368 27.691523 C 245.301368 28.446731 244.926368 28.82694 244.181577 28.82694 L 235.994076 28.82694 L 235.994076 74.863401 C 235.994076 75.618609 235.613868 75.998818 234.853451 75.998818 L 227.509701 75.998818 C 226.764909 75.998818 226.389909 75.618609 226.389909 74.863401 L 226.389909 28.82694 L 218.181575 28.82694 C 217.436783 28.82694 217.061783 28.446731 217.061783 27.691523 L 217.061783 20.639439 C 217.061783 19.879022 217.436783 19.498814 218.181575 19.498814 Z M 279.264912 29.67069 L 279.264912 42.670691 C 279.264912 43.983191 278.837829 45.087357 277.988871 45.983191 C 277.150329 46.879024 276.093037 47.446732 274.816995 47.691524 L 274.816995 47.826941 C 276.093037 48.009233 277.150329 48.561316 277.988871 49.483191 C 278.837829 50.405066 279.264912 51.524858 279.264912 52.842566 L 279.264912 65.826942 C 279.264912 69.129026 278.389912 71.649859 276.645121 73.394651 C 274.910745 75.134234 272.369079 75.998818 269.025328 75.998818 L 260.83262 75.998818 C 257.639911 75.998818 255.191994 75.155068 253.488869 73.467568 C 251.801369 71.764442 250.957619 69.316526 250.957619 66.118609 L 250.957619 63.774859 C 250.957619 62.83215 251.426369 62.3634 252.369077 62.3634 L 259.145119 62.3634 C 260.087828 62.3634 260.556578 62.83215 260.556578 63.774859 L 260.556578 66.670692 L 268.473245 66.670692 C 269.415953 66.670692 269.884703 66.201942 269.884703 65.259234 L 269.884703 55.243608 C 269.884703 53.358191 268.941995 52.415483 267.056578 52.415483 L 258.712828 52.415483 C 257.770119 52.415483 257.301369 51.941524 257.301369 50.998816 L 257.301369 44.498816 C 257.301369 43.556107 257.770119 43.087357 258.712828 43.087357 L 267.056578 43.087357 C 268.941995 43.087357 269.884703 42.17069 269.884703 40.347774 L 269.884703 30.243606 C 269.884703 29.300898 269.415953 28.82694 268.473245 28.82694 L 260.556578 28.82694 L 260.556578 31.722773 C 260.556578 32.665482 260.087828 33.13944 259.145119 33.13944 L 252.369077 33.13944 C 251.426369 33.13944 250.957619 32.665482 250.957619 31.722773 L 250.957619 28.82694 C 250.957619 25.769648 251.801369 23.451939 253.488869 21.879022 C 255.191994 20.295689 257.639911 19.498814 260.83262 19.498814 L 269.025328 19.498814 C 272.369079 19.498814 274.910745 20.363397 276.645121 22.087356 C 278.389912 23.800898 279.264912 26.326939 279.264912 29.67069 Z M 298.535747 41.32694 L 304.691997 41.32694 C 307.889914 41.32694 310.332623 42.175899 312.020123 43.879024 C 313.723248 45.571732 314.572206 48.009233 314.572206 51.207149 L 314.572206 66.118609 C 314.572206 69.316526 313.723248 71.764442 312.020123 73.467568 C 310.332623 75.155068 307.889914 75.998818 304.691997 75.998818 L 296.207622 75.998818 C 293.014913 75.998818 290.566996 75.155068 288.863871 73.467568 C 287.176371 71.764442 286.332621 69.316526 286.332621 66.118609 L 286.332621 47.967566 C 286.332621 47.311316 286.389913 46.712357 286.504496 46.170691 C 286.61908 45.618607 286.796163 45.040482 287.035746 44.431107 L 297.05658 20.571731 C 297.343039 19.858189 297.889914 19.498814 298.691997 19.498814 L 306.035747 19.498814 C 307.207623 19.498814 307.561789 20.040481 307.087831 21.123814 Z M 298.468039 66.670692 L 302.431581 66.670692 C 304.316997 66.670692 305.259706 65.727984 305.259706 63.842567 L 305.259706 53.467566 C 305.259706 51.592566 304.316997 50.655066 302.431581 50.655066 L 298.468039 50.655066 C 296.582622 50.655066 295.639913 51.592566 295.639913 53.467566 L 295.639913 63.842567 C 295.639913 65.727984 296.582622 66.670692 298.468039 66.670692 Z M 321.634707 65.826942 L 321.634707 29.67069 C 321.634707 26.326939 322.504499 23.800898 324.238874 22.087356 C 325.983665 20.363397 328.509707 19.498814 331.806582 19.498814 L 339.702416 19.498814 C 343.051375 19.498814 345.577417 20.363397 347.290959 22.087356 C 349.014917 23.800898 349.874292 26.326939 349.874292 29.67069 L 349.874292 65.826942 C 349.874292 69.129026 349.014917 71.649859 347.290959 73.394651 C 345.577417 75.134234 343.051375 75.998818 339.702416 75.998818 L 331.806582 75.998818 C 328.509707 75.998818 325.983665 75.134234 324.238874 73.394651 C 322.504499 71.649859 321.634707 69.129026 321.634707 65.826942 Z M 333.843041 66.89465 L 337.947208 66.89465 C 339.832625 66.89465 340.775333 65.951942 340.775333 64.066525 L 340.775333 31.431106 C 340.775333 29.556106 339.832625 28.618606 337.947208 28.618606 L 333.843041 28.618606 C 331.968041 28.618606 331.030541 29.556106 331.030541 31.431106 L 331.030541 64.066525 C 331.030541 65.951942 331.968041 66.89465 333.843041 66.89465 Z M 333.843041 66.89465 " stroke="#000000" stroke-width="2.648426" stroke-opacity="1" stroke-miterlimit="4"/><path stroke-linecap="butt" transform="matrix(0.911304, 0, 0, 0.911304, 59.880754, 244.035598)" fill="none" stroke-linejoin="miter" d="M 33.620826 12.001554 L 32.617799 12.001554 L 32.617799 8.636696 L 29.660154 3.432955 L 30.761769 3.432955 L 33.072162 7.449352 L 33.217901 7.449352 L 35.506861 3.432955 L 36.587045 3.432955 L 33.620826 8.636696 Z M 41.503594 12.121574 C 40.757753 12.121574 40.097641 11.962976 39.523258 11.641492 C 38.944588 11.324296 38.490225 10.831355 38.155883 10.175529 C 37.825826 9.515417 37.658655 8.696706 37.658655 7.715111 C 37.658655 6.737802 37.825826 5.919092 38.155883 5.25898 C 38.490225 4.598868 38.944588 4.110213 39.523258 3.793016 C 40.097641 3.471533 40.757753 3.308648 41.503594 3.308648 C 42.245149 3.308648 42.905261 3.471533 43.48393 3.793016 C 44.0626 4.110213 44.516963 4.598868 44.847019 5.25898 C 45.181362 5.919092 45.344246 6.737802 45.344246 7.715111 C 45.344246 8.696706 45.181362 9.515417 44.847019 10.175529 C 44.516963 10.831355 44.0626 11.324296 43.48393 11.641492 C 42.905261 11.962976 42.245149 12.121574 41.503594 12.121574 Z M 41.503594 11.191416 C 42.390888 11.191416 43.076718 10.912797 43.552513 10.35556 C 44.028309 9.798322 44.268349 8.919601 44.268349 7.715111 C 44.268349 6.514907 44.028309 5.6319 43.552513 5.078949 C 43.076718 4.521712 42.390888 4.243093 41.503594 4.243093 C 39.656137 4.243093 38.734552 5.400432 38.734552 7.715111 C 38.734552 10.034077 39.656137 11.191416 41.503594 11.191416 Z M 50.620857 12.121574 C 49.566392 12.121574 48.7734 11.855815 48.233309 11.324296 C 47.693217 10.78849 47.427457 9.999785 47.427457 8.953893 L 47.427457 3.432955 L 48.426199 3.432955 L 48.426199 8.941034 C 48.426199 9.691161 48.610516 10.252685 48.970577 10.629892 C 49.330638 11.002812 49.879302 11.191416 50.620857 11.191416 C 52.078247 11.191416 52.811229 10.441289 52.811229 8.941034 L 52.811229 3.432955 L 53.814257 3.432955 L 53.814257 8.953893 C 53.814257 9.999785 53.544211 10.78849 53.004119 11.324296 C 52.464027 11.855815 51.671035 12.121574 50.620857 12.121574 Z M 56.326112 12.001554 L 56.326112 3.432955 L 59.438069 3.432955 C 60.012452 3.432955 60.492534 3.527257 60.886887 3.71586 C 61.276953 3.90875 61.568431 4.17451 61.765607 4.521712 C 61.958497 4.864627 62.057085 5.276125 62.057085 5.747634 C 62.057085 6.279153 61.924206 6.71637 61.658446 7.063572 C 61.392687 7.410774 60.976902 7.66796 60.415378 7.839418 L 60.415378 7.963725 C 60.693997 8.070886 60.921178 8.242344 61.096922 8.478098 C 61.272666 8.713852 61.435551 9.061054 61.58129 9.528276 L 62.374282 12.001554 L 61.336963 12.001554 L 60.479675 9.382537 C 60.3768 9.073913 60.261066 8.829586 60.128186 8.653842 C 59.995307 8.478098 59.828135 8.349505 59.626673 8.272349 C 59.420923 8.195193 59.163737 8.156615 58.850826 8.156615 L 57.333426 8.156615 L 57.333426 12.001554 Z M 59.41235 7.299326 C 59.948156 7.299326 60.346795 7.175019 60.608268 6.930692 C 60.869741 6.682079 61.002621 6.304872 61.002621 5.794785 C 61.002621 5.288985 60.869741 4.907491 60.608268 4.663164 C 60.346795 4.414551 59.948156 4.290244 59.41235 4.290244 L 57.333426 4.290244 L 57.333426 7.299326 Z M 69.296887 12.121574 C 68.465317 12.121574 67.805205 11.937257 67.31655 11.56005 C 66.832182 11.18713 66.514985 10.664184 66.369246 10.004071 L 67.119374 9.661156 L 67.252254 9.686875 C 67.402279 10.196961 67.633747 10.578455 67.942371 10.835641 C 68.250995 11.088541 68.705358 11.212848 69.296887 11.212848 C 69.905561 11.212848 70.364211 11.075682 70.681407 10.797063 C 70.998604 10.522731 71.157203 10.111232 71.157203 9.575427 C 71.157203 9.048195 70.994318 8.645269 70.672835 8.36665 C 70.351351 8.088032 69.845551 7.950866 69.151148 7.950866 L 68.22099 7.950866 L 68.22099 7.119296 L 69.052559 7.119296 C 69.592651 7.119296 70.021295 6.986416 70.338492 6.71637 C 70.655689 6.450611 70.814287 6.073404 70.814287 5.584749 C 70.814287 5.117527 70.677121 4.770325 70.402789 4.538857 C 70.128456 4.307389 69.742677 4.187369 69.245449 4.187369 C 68.383874 4.187369 67.766627 4.534571 67.402279 5.220402 L 67.265113 5.24612 L 66.703589 4.628873 C 66.935057 4.23452 67.265113 3.917323 67.698044 3.672996 C 68.130974 3.432955 68.649634 3.308648 69.245449 3.308648 C 69.794114 3.308648 70.25705 3.394377 70.642829 3.565835 C 71.028609 3.737293 71.320087 3.98162 71.52155 4.298817 C 71.718727 4.6203 71.817315 5.001793 71.817315 5.447583 C 71.817315 5.871941 71.697294 6.240575 71.452967 6.557772 C 71.20864 6.879255 70.88287 7.127869 70.484231 7.312186 L 70.484231 7.436492 C 71.050042 7.573659 71.474399 7.826559 71.761591 8.199479 C 72.044496 8.5724 72.185949 9.031049 72.185949 9.575427 C 72.185949 10.385565 71.945908 11.015672 71.46154 11.457175 C 70.977172 11.902965 70.25705 12.121574 69.296887 12.121574 Z M 76.956759 12.121574 C 76.352371 12.121574 75.807993 11.975835 75.327911 11.688643 C 74.847829 11.397165 74.46205 10.92137 74.174858 10.265544 C 73.887666 9.609719 73.746214 8.761003 73.746214 7.715111 C 73.746214 6.703511 73.887666 5.871941 74.174858 5.211829 C 74.46205 4.551717 74.856402 4.071635 75.35363 3.767298 C 75.846571 3.46296 76.412381 3.308648 77.051061 3.308648 C 78.14839 3.308648 78.958528 3.642991 79.477187 4.311676 L 78.984246 4.976074 L 78.838507 4.976074 C 78.41415 4.465988 77.818334 4.213088 77.051061 4.213088 C 76.309506 4.213088 75.743696 4.491706 75.35363 5.05323 C 74.959277 5.614754 74.766387 6.510621 74.766387 7.74083 L 74.890694 7.775121 C 75.122162 7.290753 75.426499 6.926406 75.803706 6.686365 C 76.176627 6.442038 76.639562 6.322017 77.183941 6.322017 C 77.728319 6.322017 78.199827 6.437751 78.59418 6.669219 C 78.992819 6.896401 79.29287 7.230743 79.507192 7.66796 C 79.717228 8.100891 79.824389 8.615264 79.824389 9.21108 C 79.824389 9.802609 79.704369 10.321268 79.468614 10.758485 C 79.237147 11.195702 78.902804 11.534331 78.469873 11.770086 C 78.041229 12.00584 77.535429 12.121574 76.956759 12.121574 Z M 76.956759 11.212848 C 77.52257 11.212848 77.96836 11.04139 78.285556 10.698475 C 78.607039 10.35556 78.765638 9.858332 78.765638 9.21108 C 78.765638 8.55954 78.607039 8.062313 78.285556 7.715111 C 77.96836 7.372196 77.52257 7.200738 76.956759 7.200738 C 76.570979 7.200738 76.23235 7.28218 75.949445 7.436492 C 75.662254 7.595091 75.443645 7.826559 75.289333 8.12661 C 75.135021 8.426661 75.057865 8.791008 75.057865 9.21108 C 75.057865 9.626864 75.135021 9.986926 75.289333 10.286977 C 75.443645 10.591314 75.662254 10.818495 75.949445 10.977094 C 76.23235 11.135692 76.570979 11.212848 76.956759 11.212848 Z M 84.796662 12.121574 C 84.166555 12.121574 83.605031 11.971548 83.103518 11.667211 C 82.602004 11.36716 82.203365 10.887079 81.9076 10.226966 C 81.611836 9.571141 81.46181 8.730998 81.46181 7.715111 C 81.46181 6.699224 81.611836 5.863368 81.9076 5.207542 C 82.203365 4.54743 82.602004 4.067349 83.103518 3.763011 C 83.605031 3.46296 84.166555 3.308648 84.796662 3.308648 C 85.426769 3.308648 85.988293 3.46296 86.489807 3.763011 C 86.991321 4.067349 87.385674 4.54743 87.681438 5.207542 C 87.977203 5.863368 88.122942 6.699224 88.122942 7.715111 C 88.122942 8.730998 87.977203 9.571141 87.681438 10.226966 C 87.385674 10.887079 86.991321 11.36716 86.489807 11.667211 C 85.988293 11.971548 85.426769 12.121574 84.796662 12.121574 Z M 84.796662 11.191416 C 85.542503 11.191416 86.108314 10.92137 86.494093 10.385565 C 86.879873 9.849759 87.068477 8.958179 87.068477 7.715111 C 87.068477 6.476329 86.879873 5.584749 86.494093 5.048944 C 86.108314 4.508852 85.542503 4.243093 84.796662 4.243093 C 84.303721 4.243093 83.892223 4.35454 83.553594 4.581722 C 83.219251 4.808903 82.962065 5.177537 82.786321 5.687624 C 82.60629 6.201997 82.516275 6.874968 82.516275 7.715111 C 82.516275 8.555254 82.60629 9.232512 82.786321 9.742598 C 82.962065 10.256972 83.219251 10.625606 83.553594 10.852787 C 83.892223 11.079968 84.303721 11.191416 84.796662 11.191416 Z M 91.603533 7.517935 C 91.192034 7.517935 90.8234 7.42792 90.506204 7.252175 C 90.189007 7.076431 89.940393 6.832104 89.764649 6.510621 C 89.588905 6.193424 89.503176 5.829077 89.503176 5.413292 C 89.503176 5.001793 89.588905 4.633159 89.764649 4.315962 C 89.940393 3.998766 90.189007 3.750152 90.506204 3.574408 C 90.8234 3.398664 91.192034 3.308648 91.603533 3.308648 C 92.019318 3.308648 92.383665 3.398664 92.705149 3.574408 C 93.022345 3.750152 93.270959 3.998766 93.446703 4.315962 C 93.622447 4.633159 93.708176 5.001793 93.708176 5.413292 C 93.708176 5.829077 93.622447 6.193424 93.446703 6.510621 C 93.270959 6.832104 93.022345 7.076431 92.705149 7.252175 C 92.383665 7.42792 92.019318 7.517935 91.603533 7.517935 Z M 91.603533 6.763521 C 91.985026 6.763521 92.285077 6.643501 92.503686 6.412033 C 92.722294 6.176278 92.829455 5.841936 92.829455 5.413292 C 92.829455 4.984647 92.722294 4.650305 92.503686 4.418837 C 92.285077 4.183083 91.985026 4.067349 91.603533 4.067349 C 91.226326 4.067349 90.926275 4.183083 90.707666 4.418837 C 90.489058 4.650305 90.381897 4.984647 90.381897 5.413292 C 90.381897 5.841936 90.489058 6.176278 90.707666 6.412033 C 90.926275 6.643501 91.226326 6.763521 91.603533 6.763521 Z M 103.82418 3.432955 L 103.82418 4.290244 L 101.136581 4.290244 L 101.136581 12.001554 L 100.13784 12.001554 L 100.13784 4.290244 L 97.454527 4.290244 L 97.454527 3.432955 Z M 105.42731 12.001554 L 105.42731 3.432955 L 108.539267 3.432955 C 109.11365 3.432955 109.593732 3.527257 109.988084 3.71586 C 110.378151 3.90875 110.669629 4.17451 110.866805 4.521712 C 111.059695 4.864627 111.158283 5.276125 111.158283 5.747634 C 111.158283 6.279153 111.025403 6.71637 110.759644 7.063572 C 110.493885 7.410774 110.0781 7.66796 109.516576 7.839418 L 109.516576 7.963725 C 109.795194 8.070886 110.022376 8.242344 110.19812 8.478098 C 110.373864 8.713852 110.536749 9.061054 110.682488 9.528276 L 111.47548 12.001554 L 110.438161 12.001554 L 109.580872 9.382537 C 109.482284 9.073913 109.362264 8.829586 109.229384 8.653842 C 109.096504 8.478098 108.929333 8.349505 108.72787 8.272349 C 108.522121 8.195193 108.264934 8.156615 107.952024 8.156615 L 106.434624 8.156615 L 106.434624 12.001554 Z M 108.513548 7.299326 C 109.049353 7.299326 109.447993 7.175019 109.709466 6.930692 C 109.970939 6.682079 110.103818 6.304872 110.103818 5.794785 C 110.103818 5.288985 109.970939 4.907491 109.709466 4.663164 C 109.447993 4.414551 109.049353 4.290244 108.513548 4.290244 L 106.434624 4.290244 L 106.434624 7.299326 Z M 119.778319 12.001554 L 118.698135 12.001554 L 117.90943 9.648297 L 114.257381 9.648297 L 113.460103 12.001554 L 112.405638 12.001554 L 115.393288 3.432955 L 116.790668 3.432955 Z M 116.010536 4.470274 L 114.540286 8.808154 L 117.622238 8.808154 L 116.156275 4.470274 Z M 122.397335 12.001554 L 121.411453 12.001554 L 121.411453 3.432955 L 122.650235 3.432955 L 126.82523 9.978353 L 126.970969 9.956921 L 126.970969 3.432955 L 127.952564 3.432955 L 127.952564 12.001554 L 126.8981 12.001554 L 122.543074 4.997507 L 122.397335 5.023225 Z M 132.997707 12.121574 C 132.457615 12.121574 131.973247 12.048704 131.544603 11.902965 C 131.120245 11.757226 130.760184 11.564336 130.477279 11.324296 C 130.190087 11.088541 129.980052 10.827068 129.838599 10.539877 L 130.387264 9.871192 L 130.537289 9.871192 C 131.064522 10.767058 131.887519 11.212848 132.997707 11.212848 C 133.640673 11.212848 134.120755 11.079968 134.433665 10.809923 C 134.750862 10.539877 134.905174 10.166956 134.905174 9.686875 C 134.905174 9.403969 134.853737 9.163929 134.750862 8.971039 C 134.647987 8.773862 134.47653 8.606691 134.236489 8.469525 C 134.000735 8.332359 133.674965 8.212338 133.267753 8.109464 L 132.264725 7.865137 C 131.518884 7.685106 130.965933 7.397914 130.614445 7.003562 C 130.25867 6.613495 130.082926 6.116268 130.082926 5.51188 C 130.082926 5.087522 130.194374 4.706029 130.412982 4.375973 C 130.631591 4.04163 130.953074 3.780157 131.373145 3.591554 C 131.793217 3.40295 132.299017 3.308648 132.88626 3.308648 C 133.529226 3.308648 134.073604 3.40295 134.515108 3.582981 C 134.960898 3.763011 135.312386 4.037344 135.578145 4.401691 L 135.089491 5.061803 L 134.939466 5.061803 C 134.695138 4.761752 134.40366 4.543144 134.069318 4.401691 C 133.730689 4.260239 133.336336 4.187369 132.88626 4.187369 C 132.290444 4.187369 131.844654 4.303103 131.540317 4.534571 C 131.235979 4.766039 131.085954 5.083236 131.085954 5.490448 C 131.085954 5.876227 131.197401 6.184851 131.420296 6.412033 C 131.643191 6.643501 132.016112 6.819245 132.543344 6.943552 L 133.57209 7.187879 C 134.40366 7.385055 135.003762 7.685106 135.376683 8.088032 C 135.749603 8.495244 135.938207 9.009617 135.938207 9.639724 C 135.938207 10.124092 135.831046 10.552736 135.612437 10.925657 C 135.393828 11.298577 135.068059 11.590055 134.626555 11.804377 C 134.185052 12.018699 133.640673 12.121574 132.997707 12.121574 Z M 140.953344 3.432955 C 141.544873 3.432955 142.050673 3.540116 142.470745 3.750152 C 142.890816 3.960188 143.212299 4.264525 143.435194 4.654591 C 143.653803 5.048944 143.76525 5.51188 143.76525 6.039112 C 143.76525 6.570631 143.653803 7.033567 143.435194 7.423633 C 143.212299 7.813699 142.890816 8.118037 142.470745 8.328072 C 142.050673 8.542395 141.544873 8.649556 140.953344 8.649556 L 138.895852 8.649556 L 138.895852 12.001554 L 137.888538 12.001554 L 137.888538 3.432955 Z M 140.923339 7.787981 C 142.11497 7.787981 142.710786 7.205025 142.710786 6.039112 C 142.710786 4.8732 142.11497 4.290244 140.923339 4.290244 L 138.895852 4.290244 L 138.895852 7.787981 Z M 149.101871 12.121574 C 148.360317 12.121574 147.700205 11.962976 147.121535 11.641492 C 146.542865 11.324296 146.088502 10.831355 145.758446 10.175529 C 145.424104 9.515417 145.261219 8.696706 145.261219 7.715111 C 145.261219 6.737802 145.424104 5.919092 145.758446 5.25898 C 146.088502 4.598868 146.542865 4.110213 147.121535 3.793016 C 147.700205 3.471533 148.360317 3.308648 149.101871 3.308648 C 149.847712 3.308648 150.507824 3.471533 151.082208 3.793016 C 151.660877 4.110213 152.11524 4.598868 152.449583 5.25898 C 152.779639 5.919092 152.94681 6.737802 152.94681 7.715111 C 152.94681 8.696706 152.779639 9.515417 152.449583 10.175529 C 152.11524 10.831355 151.660877 11.324296 151.082208 11.641492 C 150.507824 11.962976 149.847712 12.121574 149.101871 12.121574 Z M 149.101871 11.191416 C 149.993451 11.191416 150.679282 10.912797 151.155077 10.35556 C 151.630872 9.798322 151.870913 8.919601 151.870913 7.715111 C 151.870913 6.514907 151.630872 5.6319 151.155077 5.078949 C 150.679282 4.521712 149.993451 4.243093 149.101871 4.243093 C 147.258701 4.243093 146.337116 5.400432 146.337116 7.715111 C 146.337116 10.034077 147.258701 11.191416 149.101871 11.191416 Z M 155.098604 12.001554 L 155.098604 3.432955 L 158.210561 3.432955 C 158.784945 3.432955 159.265026 3.527257 159.655092 3.71586 C 160.045159 3.90875 160.340923 4.17451 160.533813 4.521712 C 160.730989 4.864627 160.829578 5.276125 160.829578 5.747634 C 160.829578 6.279153 160.696698 6.71637 160.430939 7.063572 C 160.165179 7.410774 159.749394 7.66796 159.18787 7.839418 L 159.18787 7.963725 C 159.466489 8.070886 159.689384 8.242344 159.865128 8.478098 C 160.040872 8.713852 160.203757 9.061054 160.353783 9.528276 L 161.142488 12.001554 L 160.109455 12.001554 L 159.252167 9.382537 C 159.149292 9.073913 159.033558 8.829586 158.900679 8.653842 C 158.767799 8.478098 158.600628 8.349505 158.394878 8.272349 C 158.193416 8.195193 157.936229 8.156615 157.623319 8.156615 L 156.105918 8.156615 L 156.105918 12.001554 Z M 158.184843 7.299326 C 158.720648 7.299326 159.119287 7.175019 159.38076 6.930692 C 159.642233 6.682079 159.775113 6.304872 159.775113 5.794785 C 159.775113 5.288985 159.642233 4.907491 159.38076 4.663164 C 159.119287 4.414551 158.720648 4.290244 158.184843 4.290244 L 156.105918 4.290244 L 156.105918 7.299326 Z M 168.420867 3.432955 L 168.420867 4.290244 L 165.737554 4.290244 L 165.737554 12.001554 L 164.734527 12.001554 L 164.734527 4.290244 L 162.051214 4.290244 L 162.051214 3.432955 Z M 176.406509 12.121574 C 175.656382 12.121574 174.991983 11.950116 174.404741 11.607201 C 173.817498 11.264285 173.358849 10.762772 173.028793 10.098373 C 172.69445 9.438261 172.527279 8.640983 172.527279 7.715111 C 172.527279 6.78924 172.69445 5.996248 173.028793 5.336136 C 173.358849 4.671737 173.817498 4.170223 174.404741 3.827308 C 174.991983 3.484393 175.656382 3.308648 176.406509 3.308648 C 177.208074 3.308648 177.876759 3.46296 178.408278 3.763011 C 178.93551 4.067349 179.32129 4.521712 179.552758 5.134673 L 178.909792 5.559031 L 178.764053 5.559031 C 178.528298 5.070376 178.223961 4.727461 177.85104 4.521712 C 177.473834 4.315962 176.993752 4.213088 176.406509 4.213088 C 175.870704 4.213088 175.390622 4.333108 174.970551 4.573149 C 174.554766 4.81319 174.22471 5.194683 173.976097 5.717629 C 173.731769 6.236289 173.607462 6.904974 173.607462 7.715111 C 173.607462 8.529535 173.731769 9.193934 173.976097 9.71688 C 174.22471 10.235539 174.554766 10.612746 174.970551 10.852787 C 175.390622 11.092828 175.870704 11.212848 176.406509 11.212848 C 177.028043 11.212848 177.53813 11.075682 177.932483 10.797063 C 178.326836 10.518445 178.618314 10.064082 178.811204 9.438261 L 178.956943 9.438261 L 179.629914 9.772604 C 179.428451 10.531304 179.051244 11.11426 178.50258 11.517186 C 177.953915 11.920111 177.255225 12.121574 176.406509 12.121574 Z M 184.773645 12.121574 C 184.03209 12.121574 183.371978 11.962976 182.793309 11.641492 C 182.218925 11.324296 181.760276 10.831355 181.43022 10.175529 C 181.095877 9.515417 180.932993 8.696706 180.932993 7.715111 C 180.932993 6.737802 181.095877 5.919092 181.43022 5.25898 C 181.760276 4.598868 182.218925 4.110213 182.793309 3.793016 C 183.371978 3.471533 184.03209 3.308648 184.773645 3.308648 C 185.519486 3.308648 186.179598 3.471533 186.753981 3.793016 C 187.332651 4.110213 187.787014 4.598868 188.121356 5.25898 C 188.451413 5.919092 188.618584 6.737802 188.618584 7.715111 C 188.618584 8.696706 188.451413 9.515417 188.121356 10.175529 C 187.787014 10.831355 187.332651 11.324296 186.753981 11.641492 C 186.179598 11.962976 185.519486 12.121574 184.773645 12.121574 Z M 184.773645 11.191416 C 185.665225 11.191416 186.351056 10.912797 186.826851 10.35556 C 187.302646 9.798322 187.542687 8.919601 187.542687 7.715111 C 187.542687 6.514907 187.302646 5.6319 186.826851 5.078949 C 186.351056 4.521712 185.665225 4.243093 184.773645 4.243093 C 182.930475 4.243093 182.00889 5.400432 182.00889 7.715111 C 182.00889 10.034077 182.930475 11.191416 184.773645 11.191416 Z M 191.700536 12.001554 L 190.770378 12.001554 L 190.770378 3.432955 L 192.26206 3.432955 L 194.859644 10.685616 L 194.983951 10.685616 L 197.577248 3.432955 L 199.017493 3.432955 L 199.017493 12.001554 L 198.065903 12.001554 L 198.065903 5.010366 L 197.915877 4.984647 L 195.386876 12.001554 L 194.383849 12.001554 L 191.846275 4.984647 L 191.700536 5.010366 Z M 204.679883 3.432955 C 205.271412 3.432955 205.777213 3.540116 206.197284 3.750152 C 206.617355 3.960188 206.938839 4.264525 207.161734 4.654591 C 207.380342 5.048944 207.49179 5.51188 207.49179 6.039112 C 207.49179 6.570631 207.380342 7.033567 207.161734 7.423633 C 206.938839 7.813699 206.617355 8.118037 206.197284 8.328072 C 205.777213 8.542395 205.271412 8.649556 204.679883 8.649556 L 202.622391 8.649556 L 202.622391 12.001554 L 201.615077 12.001554 L 201.615077 3.432955 Z M 204.649878 7.787981 C 205.841509 7.787981 206.437325 7.205025 206.437325 6.039112 C 206.437325 4.8732 205.841509 4.290244 204.649878 4.290244 L 202.622391 4.290244 L 202.622391 7.787981 Z M 215.841779 12.001554 L 214.761596 12.001554 L 213.972891 9.648297 L 210.320842 9.648297 L 209.523563 12.001554 L 208.469099 12.001554 L 211.461035 3.432955 L 212.854129 3.432955 Z M 212.073997 4.470274 L 210.603747 8.808154 L 213.685699 8.808154 L 212.219736 4.470274 Z M 218.460796 12.001554 L 217.474914 12.001554 L 217.474914 3.432955 L 218.713696 3.432955 L 222.888691 9.978353 L 223.038716 9.956921 L 223.038716 3.432955 L 224.016025 3.432955 L 224.016025 12.001554 L 222.96156 12.001554 L 218.606535 4.997507 L 218.460796 5.023225 Z M 227.620923 12.001554 L 226.609323 12.001554 L 226.609323 3.432955 L 227.620923 3.432955 Z M 233.617656 12.121574 C 232.876102 12.121574 232.215989 11.962976 231.63732 11.641492 C 231.05865 11.324296 230.604287 10.831355 230.274231 10.175529 C 229.939889 9.515417 229.777004 8.696706 229.777004 7.715111 C 229.777004 6.737802 229.939889 5.919092 230.274231 5.25898 C 230.604287 4.598868 231.05865 4.110213 231.63732 3.793016 C 232.215989 3.471533 232.876102 3.308648 233.617656 3.308648 C 234.359211 3.308648 235.023609 3.471533 235.597993 3.793016 C 236.176662 4.110213 236.631025 4.598868 236.965368 5.25898 C 237.295424 5.919092 237.462595 6.737802 237.462595 7.715111 C 237.462595 8.696706 237.295424 9.515417 236.965368 10.175529 C 236.631025 10.831355 236.176662 11.324296 235.597993 11.641492 C 235.023609 11.962976 234.359211 12.121574 233.617656 12.121574 Z M 233.617656 11.191416 C 234.509236 11.191416 235.195067 10.912797 235.670862 10.35556 C 236.146657 9.798322 236.386698 8.919601 236.386698 7.715111 C 236.386698 6.514907 236.146657 5.6319 235.670862 5.078949 C 235.195067 4.521712 234.509236 4.243093 233.617656 4.243093 C 231.774486 4.243093 230.852901 5.400432 230.852901 7.715111 C 230.852901 10.034077 231.774486 11.191416 233.617656 11.191416 Z M 240.595984 12.001554 L 239.614389 12.001554 L 239.614389 3.432955 L 240.848884 3.432955 L 245.028166 9.978353 L 245.173905 9.956921 L 245.173905 3.432955 L 246.151214 3.432955 L 246.151214 12.001554 L 245.096749 12.001554 L 240.74601 4.997507 L 240.595984 5.023225 Z M 249.027417 12.057277 C 248.804522 12.057277 248.628777 11.997267 248.500184 11.87296 C 248.371591 11.744367 248.307294 11.581482 248.307294 11.371447 C 248.307294 11.169984 248.371591 11.002812 248.500184 10.869933 C 248.628777 10.74134 248.804522 10.677043 249.027417 10.677043 C 249.254598 10.677043 249.434629 10.737053 249.563222 10.86136 C 249.691815 10.989953 249.756112 11.152838 249.756112 11.362874 C 249.756112 11.568623 249.691815 11.735794 249.558935 11.864387 C 249.430342 11.992981 249.250312 12.057277 249.027417 12.057277 Z M 249.027417 12.057277 " stroke="#bfbfbf" stroke-width="0.9" stroke-opacity="1" stroke-miterlimit="4"/><g fill="#000000" fill-opacity="1"><g transform="translate(86.707251, 254.97124)"><g><path d="M 3.8125 0 L 2.90625 0 L 2.90625 -3.0625 L 0.203125 -7.8125 L 1.203125 -7.8125 L 3.3125 -4.15625 L 3.4375 -4.15625 L 5.53125 -7.8125 L 6.515625 -7.8125 L 3.8125 -3.0625 Z M 3.8125 0 "/></g></g><g transform="translate(93.419215, 254.97124)"><g><path d="M 4.28125 0.109375 C 3.601562 0.109375 3 -0.0351562 2.46875 -0.328125 C 1.945312 -0.617188 1.535156 -1.0625 1.234375 -1.65625 C 0.929688 -2.257812 0.78125 -3.007812 0.78125 -3.90625 C 0.78125 -4.800781 0.929688 -5.546875 1.234375 -6.140625 C 1.535156 -6.742188 1.945312 -7.191406 2.46875 -7.484375 C 3 -7.773438 3.601562 -7.921875 4.28125 -7.921875 C 4.957031 -7.921875 5.554688 -7.773438 6.078125 -7.484375 C 6.609375 -7.191406 7.023438 -6.742188 7.328125 -6.140625 C 7.628906 -5.546875 7.78125 -4.800781 7.78125 -3.90625 C 7.78125 -3.007812 7.628906 -2.257812 7.328125 -1.65625 C 7.023438 -1.0625 6.609375 -0.617188 6.078125 -0.328125 C 5.554688 -0.0351562 4.957031 0.109375 4.28125 0.109375 Z M 4.28125 -0.734375 C 5.09375 -0.734375 5.710938 -0.988281 6.140625 -1.5 C 6.578125 -2.007812 6.796875 -2.8125 6.796875 -3.90625 C 6.796875 -5 6.578125 -5.800781 6.140625 -6.3125 C 5.710938 -6.820312 5.09375 -7.078125 4.28125 -7.078125 C 2.601562 -7.078125 1.765625 -6.019531 1.765625 -3.90625 C 1.765625 -1.789062 2.601562 -0.734375 4.28125 -0.734375 Z M 4.28125 -0.734375 "/></g></g><g transform="translate(101.984044, 254.97124)"><g><path d="M 4.03125 0.109375 C 3.070312 0.109375 2.34375 -0.128906 1.84375 -0.609375 C 1.351562 -1.097656 1.109375 -1.820312 1.109375 -2.78125 L 1.109375 -7.8125 L 2.03125 -7.8125 L 2.03125 -2.78125 C 2.03125 -2.101562 2.191406 -1.59375 2.515625 -1.25 C 2.847656 -0.90625 3.351562 -0.734375 4.03125 -0.734375 C 5.363281 -0.734375 6.03125 -1.414062 6.03125 -2.78125 L 6.03125 -7.8125 L 6.9375 -7.8125 L 6.9375 -2.78125 C 6.9375 -1.820312 6.691406 -1.097656 6.203125 -0.609375 C 5.710938 -0.128906 4.988281 0.109375 4.03125 0.109375 Z M 4.03125 0.109375 "/></g></g><g transform="translate(110.030925, 254.97124)"><g><path d="M 1.1875 0 L 1.1875 -7.8125 L 4.015625 -7.8125 C 4.535156 -7.8125 4.972656 -7.722656 5.328125 -7.546875 C 5.691406 -7.378906 5.960938 -7.132812 6.140625 -6.8125 C 6.316406 -6.5 6.40625 -6.128906 6.40625 -5.703125 C 6.40625 -5.210938 6.28125 -4.8125 6.03125 -4.5 C 5.789062 -4.1875 5.414062 -3.953125 4.90625 -3.796875 L 4.90625 -3.671875 C 5.15625 -3.578125 5.359375 -3.421875 5.515625 -3.203125 C 5.679688 -2.992188 5.832031 -2.675781 5.96875 -2.25 L 6.6875 0 L 5.75 0 L 4.96875 -2.390625 C 4.875 -2.671875 4.765625 -2.890625 4.640625 -3.046875 C 4.523438 -3.210938 4.375 -3.328125 4.1875 -3.390625 C 4 -3.460938 3.765625 -3.5 3.484375 -3.5 L 2.09375 -3.5 L 2.09375 0 Z M 4 -4.28125 C 4.476562 -4.28125 4.835938 -4.394531 5.078125 -4.625 C 5.316406 -4.851562 5.4375 -5.195312 5.4375 -5.65625 C 5.4375 -6.113281 5.316406 -6.457031 5.078125 -6.6875 C 4.835938 -6.914062 4.476562 -7.03125 4 -7.03125 L 2.09375 -7.03125 L 2.09375 -4.28125 Z M 4 -4.28125 "/></g></g><g transform="translate(117.260837, 254.97124)"><g/></g><g transform="translate(119.941351, 254.97124)"><g><path d="M 3.09375 0.109375 C 2.332031 0.109375 1.726562 -0.0546875 1.28125 -0.390625 C 0.84375 -0.734375 0.554688 -1.210938 0.421875 -1.828125 L 1.109375 -2.125 L 1.234375 -2.109375 C 1.367188 -1.640625 1.578125 -1.289062 1.859375 -1.0625 C 2.140625 -0.832031 2.550781 -0.71875 3.09375 -0.71875 C 3.644531 -0.71875 4.0625 -0.84375 4.34375 -1.09375 C 4.632812 -1.34375 4.78125 -1.71875 4.78125 -2.21875 C 4.78125 -2.695312 4.632812 -3.0625 4.34375 -3.3125 C 4.050781 -3.5625 3.585938 -3.6875 2.953125 -3.6875 L 2.109375 -3.6875 L 2.109375 -4.453125 L 2.875 -4.453125 C 3.363281 -4.453125 3.75 -4.570312 4.03125 -4.8125 C 4.320312 -5.0625 4.46875 -5.40625 4.46875 -5.84375 C 4.46875 -6.269531 4.34375 -6.585938 4.09375 -6.796875 C 3.84375 -7.015625 3.492188 -7.125 3.046875 -7.125 C 2.253906 -7.125 1.691406 -6.804688 1.359375 -6.171875 L 1.234375 -6.15625 L 0.71875 -6.71875 C 0.9375 -7.082031 1.242188 -7.375 1.640625 -7.59375 C 2.035156 -7.8125 2.503906 -7.921875 3.046875 -7.921875 C 3.546875 -7.921875 3.96875 -7.84375 4.3125 -7.6875 C 4.664062 -7.53125 4.929688 -7.304688 5.109375 -7.015625 C 5.296875 -6.722656 5.390625 -6.375 5.390625 -5.96875 C 5.390625 -5.582031 5.273438 -5.242188 5.046875 -4.953125 C 4.828125 -4.671875 4.535156 -4.441406 4.171875 -4.265625 L 4.171875 -4.15625 C 4.691406 -4.03125 5.078125 -3.796875 5.328125 -3.453125 C 5.585938 -3.117188 5.71875 -2.707031 5.71875 -2.21875 C 5.71875 -1.46875 5.5 -0.890625 5.0625 -0.484375 C 4.625 -0.0859375 3.96875 0.109375 3.09375 0.109375 Z M 3.09375 0.109375 "/></g></g><g transform="translate(126.284878, 254.97124)"><g><path d="M 3.734375 0.109375 C 3.179688 0.109375 2.6875 -0.0195312 2.25 -0.28125 C 1.8125 -0.550781 1.457031 -0.984375 1.1875 -1.578125 C 0.925781 -2.179688 0.796875 -2.957031 0.796875 -3.90625 C 0.796875 -4.820312 0.925781 -5.582031 1.1875 -6.1875 C 1.457031 -6.789062 1.816406 -7.226562 2.265625 -7.5 C 2.710938 -7.78125 3.226562 -7.921875 3.8125 -7.921875 C 4.8125 -7.921875 5.550781 -7.613281 6.03125 -7 L 5.578125 -6.40625 L 5.4375 -6.40625 C 5.050781 -6.863281 4.507812 -7.09375 3.8125 -7.09375 C 3.132812 -7.09375 2.617188 -6.835938 2.265625 -6.328125 C 1.910156 -5.816406 1.734375 -5 1.734375 -3.875 L 1.84375 -3.84375 C 2.050781 -4.289062 2.328125 -4.625 2.671875 -4.84375 C 3.015625 -5.0625 3.4375 -5.171875 3.9375 -5.171875 C 4.425781 -5.171875 4.851562 -5.066406 5.21875 -4.859375 C 5.582031 -4.648438 5.859375 -4.347656 6.046875 -3.953125 C 6.242188 -3.554688 6.34375 -3.085938 6.34375 -2.546875 C 6.34375 -2.003906 6.234375 -1.53125 6.015625 -1.125 C 5.804688 -0.726562 5.503906 -0.421875 5.109375 -0.203125 C 4.710938 0.00390625 4.253906 0.109375 3.734375 0.109375 Z M 3.734375 -0.71875 C 4.242188 -0.71875 4.644531 -0.875 4.9375 -1.1875 C 5.226562 -1.5 5.375 -1.953125 5.375 -2.546875 C 5.375 -3.140625 5.226562 -3.59375 4.9375 -3.90625 C 4.644531 -4.21875 4.242188 -4.375 3.734375 -4.375 C 3.378906 -4.375 3.070312 -4.300781 2.8125 -4.15625 C 2.550781 -4.007812 2.347656 -3.800781 2.203125 -3.53125 C 2.066406 -3.257812 2 -2.929688 2 -2.546875 C 2 -2.160156 2.066406 -1.828125 2.203125 -1.546875 C 2.347656 -1.273438 2.550781 -1.066406 2.8125 -0.921875 C 3.070312 -0.785156 3.378906 -0.71875 3.734375 -0.71875 Z M 3.734375 -0.71875 "/></g></g><g transform="translate(133.317222, 254.97124)"><g><path d="M 3.84375 0.109375 C 3.269531 0.109375 2.753906 -0.0234375 2.296875 -0.296875 C 1.835938 -0.578125 1.472656 -1.015625 1.203125 -1.609375 C 0.929688 -2.210938 0.796875 -2.976562 0.796875 -3.90625 C 0.796875 -4.832031 0.929688 -5.59375 1.203125 -6.1875 C 1.472656 -6.789062 1.835938 -7.226562 2.296875 -7.5 C 2.753906 -7.78125 3.269531 -7.921875 3.84375 -7.921875 C 4.414062 -7.921875 4.925781 -7.78125 5.375 -7.5 C 5.832031 -7.226562 6.195312 -6.789062 6.46875 -6.1875 C 6.738281 -5.59375 6.875 -4.832031 6.875 -3.90625 C 6.875 -2.976562 6.738281 -2.210938 6.46875 -1.609375 C 6.195312 -1.015625 5.832031 -0.578125 5.375 -0.296875 C 4.925781 -0.0234375 4.414062 0.109375 3.84375 0.109375 Z M 3.84375 -0.734375 C 4.519531 -0.734375 5.03125 -0.976562 5.375 -1.46875 C 5.726562 -1.957031 5.90625 -2.769531 5.90625 -3.90625 C 5.90625 -5.039062 5.726562 -5.851562 5.375 -6.34375 C 5.03125 -6.832031 4.519531 -7.078125 3.84375 -7.078125 C 3.394531 -7.078125 3.015625 -6.972656 2.703125 -6.765625 C 2.398438 -6.554688 2.164062 -6.21875 2 -5.75 C 1.84375 -5.28125 1.765625 -4.664062 1.765625 -3.90625 C 1.765625 -3.132812 1.84375 -2.515625 2 -2.046875 C 2.164062 -1.585938 2.398438 -1.253906 2.703125 -1.046875 C 3.015625 -0.835938 3.394531 -0.734375 3.84375 -0.734375 Z M 3.84375 -0.734375 "/></g></g><g transform="translate(140.995666, 254.97124)"><g><path d="M 2.359375 -4.078125 C 1.984375 -4.078125 1.648438 -4.15625 1.359375 -4.3125 C 1.066406 -4.476562 0.84375 -4.707031 0.6875 -5 C 0.53125 -5.289062 0.453125 -5.625 0.453125 -6 C 0.453125 -6.375 0.53125 -6.707031 0.6875 -7 C 0.84375 -7.289062 1.066406 -7.515625 1.359375 -7.671875 C 1.648438 -7.835938 1.984375 -7.921875 2.359375 -7.921875 C 2.742188 -7.921875 3.078125 -7.835938 3.359375 -7.671875 C 3.648438 -7.515625 3.875 -7.289062 4.03125 -7 C 4.195312 -6.707031 4.28125 -6.375 4.28125 -6 C 4.28125 -5.625 4.195312 -5.289062 4.03125 -5 C 3.875 -4.707031 3.648438 -4.476562 3.359375 -4.3125 C 3.078125 -4.15625 2.742188 -4.078125 2.359375 -4.078125 Z M 2.359375 -4.78125 C 2.710938 -4.78125 2.988281 -4.882812 3.1875 -5.09375 C 3.382812 -5.3125 3.484375 -5.613281 3.484375 -6 C 3.484375 -6.394531 3.382812 -6.695312 3.1875 -6.90625 C 2.988281 -7.125 2.710938 -7.234375 2.359375 -7.234375 C 2.015625 -7.234375 1.742188 -7.125 1.546875 -6.90625 C 1.347656 -6.695312 1.25 -6.394531 1.25 -6 C 1.25 -5.613281 1.347656 -5.3125 1.546875 -5.09375 C 1.742188 -4.882812 2.015625 -4.78125 2.359375 -4.78125 Z M 2.359375 -4.78125 "/></g></g><g transform="translate(145.721273, 254.97124)"><g/></g><g transform="translate(148.401787, 254.97124)"><g><path d="M 6.09375 -7.8125 L 6.09375 -7.03125 L 3.640625 -7.03125 L 3.640625 0 L 2.734375 0 L 2.734375 -7.03125 L 0.28125 -7.03125 L 0.28125 -7.8125 Z M 6.09375 -7.8125 "/></g></g><g transform="translate(154.777352, 254.97124)"><g><path d="M 1.1875 0 L 1.1875 -7.8125 L 4.015625 -7.8125 C 4.535156 -7.8125 4.972656 -7.722656 5.328125 -7.546875 C 5.691406 -7.378906 5.960938 -7.132812 6.140625 -6.8125 C 6.316406 -6.5 6.40625 -6.128906 6.40625 -5.703125 C 6.40625 -5.210938 6.28125 -4.8125 6.03125 -4.5 C 5.789062 -4.1875 5.414062 -3.953125 4.90625 -3.796875 L 4.90625 -3.671875 C 5.15625 -3.578125 5.359375 -3.421875 5.515625 -3.203125 C 5.679688 -2.992188 5.832031 -2.675781 5.96875 -2.25 L 6.6875 0 L 5.75 0 L 4.96875 -2.390625 C 4.875 -2.671875 4.765625 -2.890625 4.640625 -3.046875 C 4.523438 -3.210938 4.375 -3.328125 4.1875 -3.390625 C 4 -3.460938 3.765625 -3.5 3.484375 -3.5 L 2.09375 -3.5 L 2.09375 0 Z M 4 -4.28125 C 4.476562 -4.28125 4.835938 -4.394531 5.078125 -4.625 C 5.316406 -4.851562 5.4375 -5.195312 5.4375 -5.65625 C 5.4375 -6.113281 5.316406 -6.457031 5.078125 -6.6875 C 4.835938 -6.914062 4.476562 -7.03125 4 -7.03125 L 2.09375 -7.03125 L 2.09375 -4.28125 Z M 4 -4.28125 "/></g></g><g transform="translate(162.007263, 254.97124)"><g><path d="M 7.03125 0 L 6.046875 0 L 5.328125 -2.140625 L 2 -2.140625 L 1.265625 0 L 0.3125 0 L 3.03125 -7.8125 L 4.296875 -7.8125 Z M 3.59375 -6.859375 L 2.25 -2.90625 L 5.0625 -2.90625 L 3.734375 -6.859375 Z M 3.59375 -6.859375 "/></g></g><g transform="translate(169.343969, 254.97124)"><g><path d="M 2.078125 0 L 1.1875 0 L 1.1875 -7.8125 L 2.3125 -7.8125 L 6.109375 -1.84375 L 6.25 -1.859375 L 6.25 -7.8125 L 7.140625 -7.8125 L 7.140625 0 L 6.171875 0 L 2.21875 -6.375 L 2.078125 -6.359375 Z M 2.078125 0 "/></g></g><g transform="translate(177.668513, 254.97124)"><g><path d="M 3.40625 0.109375 C 2.914062 0.109375 2.472656 0.046875 2.078125 -0.078125 C 1.691406 -0.210938 1.367188 -0.390625 1.109375 -0.609375 C 0.847656 -0.828125 0.65625 -1.066406 0.53125 -1.328125 L 1.03125 -1.9375 L 1.171875 -1.9375 C 1.648438 -1.125 2.394531 -0.71875 3.40625 -0.71875 C 4 -0.71875 4.4375 -0.835938 4.71875 -1.078125 C 5.007812 -1.328125 5.15625 -1.671875 5.15625 -2.109375 C 5.15625 -2.367188 5.109375 -2.585938 5.015625 -2.765625 C 4.921875 -2.941406 4.765625 -3.09375 4.546875 -3.21875 C 4.328125 -3.34375 4.03125 -3.453125 3.65625 -3.546875 L 2.75 -3.765625 C 2.0625 -3.929688 1.554688 -4.191406 1.234375 -4.546875 C 0.921875 -4.910156 0.765625 -5.363281 0.765625 -5.90625 C 0.765625 -6.300781 0.863281 -6.648438 1.0625 -6.953125 C 1.257812 -7.253906 1.550781 -7.488281 1.9375 -7.65625 C 2.320312 -7.832031 2.78125 -7.921875 3.3125 -7.921875 C 3.894531 -7.921875 4.390625 -7.835938 4.796875 -7.671875 C 5.203125 -7.503906 5.523438 -7.253906 5.765625 -6.921875 L 5.3125 -6.328125 L 5.1875 -6.328125 C 4.957031 -6.597656 4.691406 -6.796875 4.390625 -6.921875 C 4.085938 -7.054688 3.726562 -7.125 3.3125 -7.125 C 2.769531 -7.125 2.359375 -7.015625 2.078125 -6.796875 C 1.804688 -6.585938 1.671875 -6.300781 1.671875 -5.9375 C 1.671875 -5.582031 1.769531 -5.300781 1.96875 -5.09375 C 2.175781 -4.882812 2.519531 -4.722656 3 -4.609375 L 3.9375 -4.390625 C 4.695312 -4.210938 5.242188 -3.9375 5.578125 -3.5625 C 5.921875 -3.195312 6.09375 -2.726562 6.09375 -2.15625 C 6.09375 -1.707031 5.992188 -1.3125 5.796875 -0.96875 C 5.597656 -0.632812 5.296875 -0.367188 4.890625 -0.171875 C 4.492188 0.015625 4 0.109375 3.40625 0.109375 Z M 3.40625 0.109375 "/></g></g><g transform="translate(184.359118, 254.97124)"><g><path d="M 3.96875 -7.8125 C 4.507812 -7.8125 4.972656 -7.710938 5.359375 -7.515625 C 5.742188 -7.328125 6.035156 -7.050781 6.234375 -6.6875 C 6.429688 -6.332031 6.53125 -5.914062 6.53125 -5.4375 C 6.53125 -4.945312 6.429688 -4.523438 6.234375 -4.171875 C 6.035156 -3.816406 5.742188 -3.539062 5.359375 -3.34375 C 4.972656 -3.15625 4.507812 -3.0625 3.96875 -3.0625 L 2.09375 -3.0625 L 2.09375 0 L 1.1875 0 L 1.1875 -7.8125 Z M 3.953125 -3.84375 C 5.035156 -3.84375 5.578125 -4.375 5.578125 -5.4375 C 5.578125 -6.5 5.035156 -7.03125 3.953125 -7.03125 L 2.09375 -7.03125 L 2.09375 -3.84375 Z M 3.953125 -3.84375 "/></g></g><g transform="translate(191.476897, 254.97124)"><g><path d="M 4.28125 0.109375 C 3.601562 0.109375 3 -0.0351562 2.46875 -0.328125 C 1.945312 -0.617188 1.535156 -1.0625 1.234375 -1.65625 C 0.929688 -2.257812 0.78125 -3.007812 0.78125 -3.90625 C 0.78125 -4.800781 0.929688 -5.546875 1.234375 -6.140625 C 1.535156 -6.742188 1.945312 -7.191406 2.46875 -7.484375 C 3 -7.773438 3.601562 -7.921875 4.28125 -7.921875 C 4.957031 -7.921875 5.554688 -7.773438 6.078125 -7.484375 C 6.609375 -7.191406 7.023438 -6.742188 7.328125 -6.140625 C 7.628906 -5.546875 7.78125 -4.800781 7.78125 -3.90625 C 7.78125 -3.007812 7.628906 -2.257812 7.328125 -1.65625 C 7.023438 -1.0625 6.609375 -0.617188 6.078125 -0.328125 C 5.554688 -0.0351562 4.957031 0.109375 4.28125 0.109375 Z M 4.28125 -0.734375 C 5.09375 -0.734375 5.710938 -0.988281 6.140625 -1.5 C 6.578125 -2.007812 6.796875 -2.8125 6.796875 -3.90625 C 6.796875 -5 6.578125 -5.800781 6.140625 -6.3125 C 5.710938 -6.820312 5.09375 -7.078125 4.28125 -7.078125 C 2.601562 -7.078125 1.765625 -6.019531 1.765625 -3.90625 C 1.765625 -1.789062 2.601562 -0.734375 4.28125 -0.734375 Z M 4.28125 -0.734375 "/></g></g><g transform="translate(200.041726, 254.97124)"><g><path d="M 1.1875 0 L 1.1875 -7.8125 L 4.015625 -7.8125 C 4.535156 -7.8125 4.972656 -7.722656 5.328125 -7.546875 C 5.691406 -7.378906 5.960938 -7.132812 6.140625 -6.8125 C 6.316406 -6.5 6.40625 -6.128906 6.40625 -5.703125 C 6.40625 -5.210938 6.28125 -4.8125 6.03125 -4.5 C 5.789062 -4.1875 5.414062 -3.953125 4.90625 -3.796875 L 4.90625 -3.671875 C 5.15625 -3.578125 5.359375 -3.421875 5.515625 -3.203125 C 5.679688 -2.992188 5.832031 -2.675781 5.96875 -2.25 L 6.6875 0 L 5.75 0 L 4.96875 -2.390625 C 4.875 -2.671875 4.765625 -2.890625 4.640625 -3.046875 C 4.523438 -3.210938 4.375 -3.328125 4.1875 -3.390625 C 4 -3.460938 3.765625 -3.5 3.484375 -3.5 L 2.09375 -3.5 L 2.09375 0 Z M 4 -4.28125 C 4.476562 -4.28125 4.835938 -4.394531 5.078125 -4.625 C 5.316406 -4.851562 5.4375 -5.195312 5.4375 -5.65625 C 5.4375 -6.113281 5.316406 -6.457031 5.078125 -6.6875 C 4.835938 -6.914062 4.476562 -7.03125 4 -7.03125 L 2.09375 -7.03125 L 2.09375 -4.28125 Z M 4 -4.28125 "/></g></g><g transform="translate(207.271638, 254.97124)"><g><path d="M 6.09375 -7.8125 L 6.09375 -7.03125 L 3.640625 -7.03125 L 3.640625 0 L 2.734375 0 L 2.734375 -7.03125 L 0.28125 -7.03125 L 0.28125 -7.8125 Z M 6.09375 -7.8125 "/></g></g><g transform="translate(213.647202, 254.97124)"><g/></g><g transform="translate(216.327716, 254.97124)"><g><path d="M 4.3125 0.109375 C 3.632812 0.109375 3.023438 -0.046875 2.484375 -0.359375 C 1.953125 -0.671875 1.535156 -1.128906 1.234375 -1.734375 C 0.929688 -2.335938 0.78125 -3.0625 0.78125 -3.90625 C 0.78125 -4.75 0.929688 -5.472656 1.234375 -6.078125 C 1.535156 -6.679688 1.953125 -7.140625 2.484375 -7.453125 C 3.023438 -7.765625 3.632812 -7.921875 4.3125 -7.921875 C 5.039062 -7.921875 5.644531 -7.78125 6.125 -7.5 C 6.613281 -7.226562 6.96875 -6.816406 7.1875 -6.265625 L 6.59375 -5.875 L 6.46875 -5.875 C 6.25 -6.3125 5.96875 -6.625 5.625 -6.8125 C 5.28125 -7 4.84375 -7.09375 4.3125 -7.09375 C 3.820312 -7.09375 3.382812 -6.984375 3 -6.765625 C 2.625 -6.546875 2.320312 -6.195312 2.09375 -5.71875 C 1.875 -5.25 1.765625 -4.644531 1.765625 -3.90625 C 1.765625 -3.164062 1.875 -2.554688 2.09375 -2.078125 C 2.320312 -1.609375 2.625 -1.265625 3 -1.046875 C 3.382812 -0.828125 3.820312 -0.71875 4.3125 -0.71875 C 4.882812 -0.71875 5.347656 -0.84375 5.703125 -1.09375 C 6.066406 -1.351562 6.332031 -1.765625 6.5 -2.328125 L 6.640625 -2.328125 L 7.25 -2.03125 C 7.0625 -1.34375 6.71875 -0.8125 6.21875 -0.4375 C 5.71875 -0.0703125 5.082031 0.109375 4.3125 0.109375 Z M 4.3125 0.109375 "/></g></g><g transform="translate(223.984802, 254.97124)"><g><path d="M 4.28125 0.109375 C 3.601562 0.109375 3 -0.0351562 2.46875 -0.328125 C 1.945312 -0.617188 1.535156 -1.0625 1.234375 -1.65625 C 0.929688 -2.257812 0.78125 -3.007812 0.78125 -3.90625 C 0.78125 -4.800781 0.929688 -5.546875 1.234375 -6.140625 C 1.535156 -6.742188 1.945312 -7.191406 2.46875 -7.484375 C 3 -7.773438 3.601562 -7.921875 4.28125 -7.921875 C 4.957031 -7.921875 5.554688 -7.773438 6.078125 -7.484375 C 6.609375 -7.191406 7.023438 -6.742188 7.328125 -6.140625 C 7.628906 -5.546875 7.78125 -4.800781 7.78125 -3.90625 C 7.78125 -3.007812 7.628906 -2.257812 7.328125 -1.65625 C 7.023438 -1.0625 6.609375 -0.617188 6.078125 -0.328125 C 5.554688 -0.0351562 4.957031 0.109375 4.28125 0.109375 Z M 4.28125 -0.734375 C 5.09375 -0.734375 5.710938 -0.988281 6.140625 -1.5 C 6.578125 -2.007812 6.796875 -2.8125 6.796875 -3.90625 C 6.796875 -5 6.578125 -5.800781 6.140625 -6.3125 C 5.710938 -6.820312 5.09375 -7.078125 4.28125 -7.078125 C 2.601562 -7.078125 1.765625 -6.019531 1.765625 -3.90625 C 1.765625 -1.789062 2.601562 -0.734375 4.28125 -0.734375 Z M 4.28125 -0.734375 "/></g></g><g transform="translate(232.549631, 254.97124)"><g><path d="M 2.03125 0 L 1.1875 0 L 1.1875 -7.8125 L 2.546875 -7.8125 L 4.90625 -1.203125 L 5.015625 -1.203125 L 7.390625 -7.8125 L 8.703125 -7.8125 L 8.703125 0 L 7.828125 0 L 7.828125 -6.375 L 7.703125 -6.390625 L 5.390625 0 L 4.46875 0 L 2.15625 -6.390625 L 2.03125 -6.375 Z M 2.03125 0 "/></g></g><g transform="translate(242.433358, 254.97124)"><g><path d="M 3.96875 -7.8125 C 4.507812 -7.8125 4.972656 -7.710938 5.359375 -7.515625 C 5.742188 -7.328125 6.035156 -7.050781 6.234375 -6.6875 C 6.429688 -6.332031 6.53125 -5.914062 6.53125 -5.4375 C 6.53125 -4.945312 6.429688 -4.523438 6.234375 -4.171875 C 6.035156 -3.816406 5.742188 -3.539062 5.359375 -3.34375 C 4.972656 -3.15625 4.507812 -3.0625 3.96875 -3.0625 L 2.09375 -3.0625 L 2.09375 0 L 1.1875 0 L 1.1875 -7.8125 Z M 3.953125 -3.84375 C 5.035156 -3.84375 5.578125 -4.375 5.578125 -5.4375 C 5.578125 -6.5 5.035156 -7.03125 3.953125 -7.03125 L 2.09375 -7.03125 L 2.09375 -3.84375 Z M 3.953125 -3.84375 "/></g></g><g transform="translate(249.551137, 254.97124)"><g><path d="M 7.03125 0 L 6.046875 0 L 5.328125 -2.140625 L 2 -2.140625 L 1.265625 0 L 0.3125 0 L 3.03125 -7.8125 L 4.296875 -7.8125 Z M 3.59375 -6.859375 L 2.25 -2.90625 L 5.0625 -2.90625 L 3.734375 -6.859375 Z M 3.59375 -6.859375 "/></g></g><g transform="translate(256.887842, 254.97124)"><g><path d="M 2.078125 0 L 1.1875 0 L 1.1875 -7.8125 L 2.3125 -7.8125 L 6.109375 -1.84375 L 6.25 -1.859375 L 6.25 -7.8125 L 7.140625 -7.8125 L 7.140625 0 L 6.171875 0 L 2.21875 -6.375 L 2.078125 -6.359375 Z M 2.078125 0 "/></g></g><g transform="translate(265.212386, 254.97124)"><g><path d="M 2.09375 0 L 1.1875 0 L 1.1875 -7.8125 L 2.09375 -7.8125 Z M 2.09375 0 "/></g></g><g transform="translate(268.496282, 254.97124)"><g><path d="M 4.28125 0.109375 C 3.601562 0.109375 3 -0.0351562 2.46875 -0.328125 C 1.945312 -0.617188 1.535156 -1.0625 1.234375 -1.65625 C 0.929688 -2.257812 0.78125 -3.007812 0.78125 -3.90625 C 0.78125 -4.800781 0.929688 -5.546875 1.234375 -6.140625 C 1.535156 -6.742188 1.945312 -7.191406 2.46875 -7.484375 C 3 -7.773438 3.601562 -7.921875 4.28125 -7.921875 C 4.957031 -7.921875 5.554688 -7.773438 6.078125 -7.484375 C 6.609375 -7.191406 7.023438 -6.742188 7.328125 -6.140625 C 7.628906 -5.546875 7.78125 -4.800781 7.78125 -3.90625 C 7.78125 -3.007812 7.628906 -2.257812 7.328125 -1.65625 C 7.023438 -1.0625 6.609375 -0.617188 6.078125 -0.328125 C 5.554688 -0.0351562 4.957031 0.109375 4.28125 0.109375 Z M 4.28125 -0.734375 C 5.09375 -0.734375 5.710938 -0.988281 6.140625 -1.5 C 6.578125 -2.007812 6.796875 -2.8125 6.796875 -3.90625 C 6.796875 -5 6.578125 -5.800781 6.140625 -6.3125 C 5.710938 -6.820312 5.09375 -7.078125 4.28125 -7.078125 C 2.601562 -7.078125 1.765625 -6.019531 1.765625 -3.90625 C 1.765625 -1.789062 2.601562 -0.734375 4.28125 -0.734375 Z M 4.28125 -0.734375 "/></g></g><g transform="translate(277.061112, 254.97124)"><g><path d="M 2.078125 0 L 1.1875 0 L 1.1875 -7.8125 L 2.3125 -7.8125 L 6.109375 -1.84375 L 6.25 -1.859375 L 6.25 -7.8125 L 7.140625 -7.8125 L 7.140625 0 L 6.171875 0 L 2.21875 -6.375 L 2.078125 -6.359375 Z M 2.078125 0 "/></g></g><g transform="translate(285.385656, 254.97124)"><g><path d="M 1.4375 0.046875 C 1.226562 0.046875 1.066406 -0.00390625 0.953125 -0.109375 C 0.835938 -0.222656 0.78125 -0.378906 0.78125 -0.578125 C 0.78125 -0.753906 0.835938 -0.898438 0.953125 -1.015625 C 1.066406 -1.140625 1.226562 -1.203125 1.4375 -1.203125 C 1.644531 -1.203125 1.804688 -1.144531 1.921875 -1.03125 C 2.035156 -0.914062 2.09375 -0.765625 2.09375 -0.578125 C 2.09375 -0.390625 2.03125 -0.238281 1.90625 -0.125 C 1.789062 -0.0078125 1.632812 0.046875 1.4375 0.046875 Z M 1.4375 0.046875 "/></g></g></g><path fill="#d3d2d2" d="M 221.496094 196.273438 C 221.496094 197 213.496094 197.585938 203.625 197.585938 C 193.753906 197.585938 185.753906 197 185.753906 196.273438 C 185.753906 195.550781 193.753906 194.964844 203.625 194.964844 C 213.496094 194.964844 221.496094 195.550781 221.496094 196.273438 " fill-opacity="1" fill-rule="nonzero"/><g clip-path="url(#8d368f6f8b)"><path fill="#49bbd7" d="M 229.542969 154.328125 C 230.242188 140.496094 218.296875 129.253906 204.433594 129.253906 C 190.5625 129.253906 179.320312 140.480469 179.320312 154.328125 C 179.320312 170.421875 200.453125 194.921875 204.445312 194.921875 C 208.441406 194.921875 228.828125 168.425781 229.542969 154.328125 " fill-opacity="1" fill-rule="nonzero"/></g><path fill="#ffffff" d="M 223.277344 152.757812 C 223.277344 163.144531 214.847656 171.5625 204.445312 171.5625 C 194.046875 171.5625 185.613281 163.144531 185.613281 152.757812 C 185.613281 142.375 194.046875 133.957031 204.445312 133.957031 C 214.847656 133.957031 223.277344 142.375 223.277344 152.757812 " fill-opacity="1" fill-rule="nonzero"/><path fill="#49bbd7" d="M 221.511719 155.929688 L 220.210938 153.703125 L 220.210938 153.238281 L 220.542969 153.238281 L 220.542969 150.445312 L 220.359375 150.445312 L 220.046875 150.238281 L 219.78125 150.238281 L 219.785156 149.035156 L 218.296875 148.078125 L 218.300781 146.890625 L 209.265625 146.890625 L 209.265625 154.230469 L 208.914062 154.230469 L 208.914062 153.953125 L 208.433594 153.953125 L 208.433594 148.441406 L 208.898438 148.441406 L 208.898438 147.140625 L 187.664062 147.140625 L 187.664062 148.441406 L 188.132812 148.441406 L 188.132812 153.953125 L 187.636719 153.953125 L 187.636719 155.929688 L 208.914062 155.929688 L 208.914062 155.652344 L 209.265625 155.652344 L 209.265625 155.929688 L 221.511719 155.929688 " fill-opacity="1" fill-rule="nonzero"/><path fill="#ffffff" d="M 210.945312 152.953125 L 210.644531 152.953125 L 210.644531 151.574219 L 210.945312 151.574219 L 210.945312 152.953125 " fill-opacity="1" fill-rule="nonzero"/><path fill="#ffffff" d="M 212.042969 152.953125 L 211.742188 152.953125 L 211.742188 151.574219 L 212.042969 151.574219 L 212.042969 152.953125 " fill-opacity="1" fill-rule="nonzero"/><path fill="#ffffff" d="M 213.140625 152.953125 L 212.839844 152.953125 L 212.839844 151.574219 L 213.140625 151.574219 L 213.140625 152.953125 " fill-opacity="1" fill-rule="nonzero"/><path fill="#ffffff" d="M 213.691406 152.953125 L 213.390625 152.953125 L 213.390625 151.574219 L 213.691406 151.574219 L 213.691406 152.953125 " fill-opacity="1" fill-rule="nonzero"/><path fill="#ffffff" d="M 212.746094 148.273438 L 218.222656 148.273438 L 219.546875 149.140625 L 219.546875 150.203125 L 212.746094 150.203125 L 212.746094 148.273438 " fill-opacity="1" fill-rule="nonzero"/><path fill="#ffffff" d="M 212.59375 152.953125 L 212.292969 152.953125 L 212.292969 151.574219 L 212.59375 151.574219 L 212.59375 152.953125 " fill-opacity="1" fill-rule="nonzero"/><path fill="#ffffff" d="M 211.558594 147.914062 L 212.527344 147.914062 L 212.527344 150.308594 L 211.558594 150.308594 L 211.558594 147.914062 " fill-opacity="1" fill-rule="nonzero"/><path fill="#ffffff" d="M 211.492188 152.953125 L 211.195312 152.953125 L 211.195312 151.574219 L 211.492188 151.574219 L 211.492188 152.953125 " fill-opacity="1" fill-rule="nonzero"/><path fill="#ffffff" d="M 210.3125 147.914062 L 211.277344 147.914062 L 211.277344 150.308594 L 210.3125 150.308594 L 210.3125 147.914062 " fill-opacity="1" fill-rule="nonzero"/><path fill="#ffffff" d="M 210.09375 151.574219 L 210.394531 151.574219 L 210.394531 152.953125 L 210.09375 152.953125 L 210.09375 151.574219 " fill-opacity="1" fill-rule="nonzero"/><path fill="#ffffff" d="M 209.546875 151.574219 L 209.847656 151.574219 L 209.847656 152.953125 L 209.546875 152.953125 L 209.546875 151.574219 " fill-opacity="1" fill-rule="nonzero"/><path fill="#ffffff" d="M 191.855469 150.945312 L 189.753906 150.945312 L 189.753906 149.023438 L 191.855469 149.023438 L 191.855469 150.945312 " fill-opacity="1" fill-rule="nonzero"/><path fill="#ffffff" d="M 196.726562 150.945312 L 194.625 150.945312 L 194.625 149.023438 L 196.726562 149.023438 L 196.726562 150.945312 " fill-opacity="1" fill-rule="nonzero"/><path fill="#ffffff" d="M 201.625 150.945312 L 199.523438 150.945312 L 199.523438 149.023438 L 201.625 149.023438 L 201.625 150.945312 " fill-opacity="1" fill-rule="nonzero"/><path fill="#ffffff" d="M 206.441406 150.945312 L 204.339844 150.945312 L 204.339844 149.023438 L 206.441406 149.023438 L 206.441406 150.945312 " fill-opacity="1" fill-rule="nonzero"/><path fill="#7b7979" d="M 190.34375 155.527344 L 190.308594 155.566406 L 190.269531 155.527344 L 190.308594 155.488281 L 190.34375 155.527344 " fill-opacity="1" fill-rule="nonzero"/><path fill="#7b7979" d="M 189.769531 156.015625 L 189.808594 156.054688 L 189.769531 156.09375 L 189.730469 156.054688 L 189.769531 156.015625 " fill-opacity="1" fill-rule="nonzero"/><path fill="#7b7979" d="M 190.84375 156.015625 L 190.882812 156.054688 L 190.84375 156.09375 L 190.804688 156.054688 L 190.84375 156.015625 " fill-opacity="1" fill-rule="nonzero"/><path fill="#7b7979" d="M 190.566406 155.59375 L 190.621094 155.582031 L 190.632812 155.636719 L 190.578125 155.644531 L 190.566406 155.59375 " fill-opacity="1" fill-rule="nonzero"/><path fill="#7b7979" d="M 190.765625 155.777344 L 190.820312 155.792969 L 190.804688 155.847656 L 190.75 155.832031 L 190.765625 155.777344 " fill-opacity="1" fill-rule="nonzero"/><path fill="#7b7979" d="M 189.859375 155.777344 L 189.875 155.828125 L 189.824219 155.847656 L 189.808594 155.792969 L 189.859375 155.777344 " fill-opacity="1" fill-rule="nonzero"/><path fill="#49bbd7" d="M 217.785156 154.777344 C 217.078125 154.777344 216.507812 155.351562 216.507812 156.054688 C 216.507812 156.761719 217.078125 157.332031 217.785156 157.332031 C 218.488281 157.332031 219.0625 156.761719 219.0625 156.054688 C 219.0625 155.351562 218.488281 154.777344 217.785156 154.777344 " fill-opacity="1" fill-rule="nonzero"/><path fill="#ffffff" d="M 217.785156 154.777344 L 217.785156 154.730469 C 217.050781 154.730469 216.457031 155.324219 216.457031 156.054688 C 216.457031 156.785156 217.050781 157.378906 217.785156 157.378906 C 218.515625 157.378906 219.109375 156.785156 219.109375 156.054688 C 219.109375 155.324219 218.515625 154.730469 217.785156 154.730469 L 217.785156 154.828125 C 218.464844 154.828125 219.011719 155.378906 219.015625 156.054688 C 219.011719 156.734375 218.464844 157.285156 217.785156 157.285156 C 217.105469 157.285156 216.554688 156.734375 216.554688 156.054688 C 216.554688 155.378906 217.105469 154.828125 217.785156 154.828125 L 217.785156 154.777344 " fill-opacity="1" fill-rule="nonzero"/><path fill="#49bbd7" d="M 215.15625 154.777344 C 214.453125 154.777344 213.878906 155.351562 213.878906 156.054688 C 213.878906 156.761719 214.453125 157.332031 215.15625 157.332031 C 215.863281 157.332031 216.433594 156.761719 216.433594 156.054688 C 216.433594 155.351562 215.863281 154.777344 215.15625 154.777344 " fill-opacity="1" fill-rule="nonzero"/><path fill="#ffffff" d="M 215.15625 154.777344 L 215.15625 154.730469 C 214.425781 154.730469 213.832031 155.324219 213.832031 156.054688 C 213.832031 156.785156 214.425781 157.378906 215.15625 157.378906 C 215.890625 157.378906 216.484375 156.785156 216.484375 156.054688 C 216.484375 155.324219 215.890625 154.730469 215.15625 154.730469 L 215.15625 154.828125 C 215.835938 154.828125 216.386719 155.378906 216.386719 156.054688 C 216.386719 156.734375 215.835938 157.285156 215.15625 157.285156 C 214.476562 157.285156 213.929688 156.734375 213.925781 156.054688 C 213.929688 155.378906 214.476562 154.828125 215.15625 154.828125 L 215.15625 154.777344 " fill-opacity="1" fill-rule="nonzero"/><path fill="#49bbd7" d="M 211.527344 154.777344 C 210.820312 154.777344 210.25 155.351562 210.25 156.054688 C 210.25 156.761719 210.820312 157.332031 211.527344 157.332031 C 212.234375 157.332031 212.804688 156.761719 212.804688 156.054688 C 212.804688 155.351562 212.234375 154.777344 211.527344 154.777344 " fill-opacity="1" fill-rule="nonzero"/><path fill="#ffffff" d="M 211.527344 154.777344 L 211.527344 154.730469 C 210.796875 154.730469 210.203125 155.324219 210.203125 156.054688 C 210.203125 156.785156 210.796875 157.378906 211.527344 157.378906 C 212.261719 157.378906 212.855469 156.785156 212.855469 156.054688 C 212.855469 155.324219 212.261719 154.730469 211.527344 154.730469 L 211.527344 154.828125 C 212.207031 154.828125 212.757812 155.378906 212.757812 156.054688 C 212.757812 156.734375 212.207031 157.285156 211.527344 157.285156 C 210.847656 157.285156 210.296875 156.734375 210.296875 156.054688 C 210.296875 155.378906 210.847656 154.828125 211.527344 154.828125 L 211.527344 154.777344 " fill-opacity="1" fill-rule="nonzero"/><path fill="#49bbd7" d="M 207.042969 154.777344 C 206.339844 154.777344 205.765625 155.351562 205.765625 156.054688 C 205.765625 156.761719 206.339844 157.332031 207.042969 157.332031 C 207.75 157.332031 208.324219 156.761719 208.324219 156.054688 C 208.324219 155.351562 207.75 154.777344 207.042969 154.777344 " fill-opacity="1" fill-rule="nonzero"/><path fill="#ffffff" d="M 207.042969 154.777344 L 207.042969 154.730469 C 206.3125 154.730469 205.71875 155.324219 205.71875 156.054688 C 205.71875 156.785156 206.3125 157.378906 207.042969 157.378906 C 207.777344 157.378906 208.371094 156.785156 208.371094 156.054688 C 208.371094 155.324219 207.777344 154.730469 207.042969 154.730469 L 207.042969 154.828125 C 207.722656 154.828125 208.273438 155.378906 208.273438 156.054688 C 208.273438 156.734375 207.722656 157.285156 207.042969 157.285156 C 206.367188 157.285156 205.816406 156.734375 205.816406 156.054688 C 205.816406 155.378906 206.367188 154.828125 207.042969 154.828125 L 207.042969 154.777344 " fill-opacity="1" fill-rule="nonzero"/><path fill="#49bbd7" d="M 201.242188 154.777344 C 200.535156 154.777344 199.960938 155.351562 199.960938 156.054688 C 199.960938 156.761719 200.535156 157.332031 201.242188 157.332031 C 201.949219 157.332031 202.519531 156.761719 202.519531 156.054688 C 202.519531 155.351562 201.949219 154.777344 201.242188 154.777344 " fill-opacity="1" fill-rule="nonzero"/><path fill="#ffffff" d="M 201.242188 154.777344 L 201.242188 154.730469 C 200.507812 154.730469 199.914062 155.324219 199.914062 156.054688 C 199.914062 156.785156 200.507812 157.378906 201.242188 157.378906 C 201.976562 157.378906 202.566406 156.785156 202.566406 156.054688 C 202.566406 155.324219 201.976562 154.730469 201.242188 154.730469 L 201.242188 154.828125 C 201.921875 154.828125 202.46875 155.378906 202.472656 156.054688 C 202.46875 156.734375 201.921875 157.285156 201.242188 157.285156 C 200.5625 157.285156 200.011719 156.734375 200.011719 156.054688 C 200.011719 155.378906 200.5625 154.828125 201.242188 154.828125 L 201.242188 154.777344 " fill-opacity="1" fill-rule="nonzero"/><path fill="#49bbd7" d="M 196.457031 154.777344 C 195.75 154.777344 195.175781 155.351562 195.175781 156.054688 C 195.175781 156.761719 195.75 157.332031 196.457031 157.332031 C 197.160156 157.332031 197.734375 156.761719 197.734375 156.054688 C 197.734375 155.351562 197.160156 154.777344 196.457031 154.777344 " fill-opacity="1" fill-rule="nonzero"/><path fill="#ffffff" d="M 196.457031 154.777344 L 196.457031 154.730469 C 195.722656 154.730469 195.128906 155.324219 195.128906 156.054688 C 195.128906 156.785156 195.722656 157.378906 196.457031 157.378906 C 197.1875 157.378906 197.78125 156.785156 197.78125 156.054688 C 197.78125 155.324219 197.1875 154.730469 196.457031 154.730469 L 196.457031 154.828125 C 197.132812 154.828125 197.683594 155.378906 197.6875 156.054688 C 197.683594 156.734375 197.132812 157.285156 196.457031 157.285156 C 195.777344 157.285156 195.226562 156.734375 195.226562 156.054688 C 195.226562 155.378906 195.777344 154.828125 196.457031 154.828125 L 196.457031 154.777344 " fill-opacity="1" fill-rule="nonzero"/><path fill="#49bbd7" d="M 190.308594 154.777344 C 189.601562 154.777344 189.027344 155.351562 189.027344 156.054688 C 189.027344 156.761719 189.601562 157.332031 190.308594 157.332031 C 191.011719 157.332031 191.585938 156.761719 191.585938 156.054688 C 191.585938 155.351562 191.011719 154.777344 190.308594 154.777344 " fill-opacity="1" fill-rule="nonzero"/><path fill="#ffffff" d="M 190.308594 154.777344 L 190.308594 154.730469 C 189.574219 154.730469 188.980469 155.324219 188.980469 156.054688 C 188.980469 156.785156 189.574219 157.378906 190.308594 157.378906 C 191.039062 157.378906 191.632812 156.785156 191.632812 156.054688 C 191.632812 155.324219 191.039062 154.730469 190.308594 154.730469 L 190.308594 154.828125 C 190.988281 154.828125 191.535156 155.378906 191.539062 156.054688 C 191.535156 156.734375 190.988281 157.285156 190.308594 157.285156 C 189.628906 157.285156 189.078125 156.734375 189.074219 156.054688 C 189.078125 155.378906 189.628906 154.828125 190.308594 154.828125 L 190.308594 154.777344 " fill-opacity="1" fill-rule="nonzero"/><g clip-path="url(#949227c84a)"><path fill="#d3d2d2" d="M 170.613281 196.011719 C 170.613281 196.734375 162.609375 197.320312 152.742188 197.320312 C 142.871094 197.320312 134.867188 196.734375 134.867188 196.011719 C 134.867188 195.285156 142.871094 194.703125 152.742188 194.703125 C 162.609375 194.703125 170.613281 195.285156 170.613281 196.011719 " fill-opacity="1" fill-rule="nonzero"/></g><g clip-path="url(#b19c8bb333)"><path fill="#3b4e70" d="M 177.941406 155.414062 C 178.640625 141.585938 166.699219 130.34375 152.832031 130.34375 C 138.964844 130.34375 127.71875 141.570312 127.71875 155.414062 C 127.71875 171.511719 148.847656 196.011719 152.847656 196.011719 C 156.839844 196.011719 177.226562 169.515625 177.941406 155.414062 " fill-opacity="1" fill-rule="nonzero"/></g><path fill="#ffffff" d="M 171.679688 153.847656 C 171.679688 164.234375 163.246094 172.648438 152.847656 172.648438 C 142.445312 172.648438 134.011719 164.234375 134.011719 153.847656 C 134.011719 143.460938 142.445312 135.046875 152.847656 135.046875 C 163.246094 135.046875 171.679688 143.460938 171.679688 153.847656 " fill-opacity="1" fill-rule="nonzero"/><path fill="#3b4e70" d="M 167.757812 154.902344 L 167.742188 154.855469 L 167.734375 154.835938 L 167.703125 154.777344 L 167.699219 154.769531 L 167.664062 154.726562 L 167.644531 154.710938 L 167.609375 154.679688 L 167.589844 154.667969 L 167.535156 154.636719 L 167.539062 154.53125 L 167.542969 154.429688 L 167.585938 153.5 L 167.609375 152.984375 L 167.769531 149.527344 C 167.769531 148.722656 167.117188 148.074219 166.316406 148.074219 L 147.890625 148.074219 L 147.878906 148.054688 C 147.824219 147.941406 147.753906 147.835938 147.671875 147.742188 C 147.53125 147.574219 147.34375 147.421875 147.0625 147.328125 C 146.910156 147.273438 146.746094 147.242188 146.574219 147.242188 L 142.683594 147.242188 C 142.101562 147.242188 141.601562 147.582031 141.367188 148.074219 L 140.5 148.074219 C 139.734375 148.074219 139.367188 148.605469 139.085938 149.410156 C 139.042969 149.417969 139.011719 149.433594 138.996094 149.480469 L 138.363281 149.480469 C 138.035156 149.480469 137.765625 149.746094 137.765625 150.078125 L 137.765625 150.863281 C 137.730469 150.90625 137.710938 150.960938 137.710938 151.023438 L 137.710938 151.761719 C 137.710938 151.90625 137.828125 152.023438 137.972656 152.023438 C 138.121094 152.023438 138.238281 151.90625 138.238281 151.761719 L 138.238281 151.023438 C 138.238281 150.976562 138.222656 150.929688 138.199219 150.890625 L 138.199219 150.832031 C 138.21875 149.984375 138.261719 149.980469 138.878906 149.992188 C 138.359375 151.464844 136.921875 156.042969 138.359375 157.492188 L 138.371094 157.503906 C 138.425781 157.558594 138.484375 157.609375 138.550781 157.65625 L 138.585938 157.679688 L 138.65625 157.722656 L 138.722656 157.757812 L 138.722656 157.761719 L 138.769531 157.785156 L 138.839844 157.8125 L 138.878906 157.832031 L 138.988281 157.867188 L 139.03125 157.878906 L 139.136719 157.902344 L 139.140625 157.902344 L 139.15625 157.90625 C 139.199219 157.914062 139.246094 157.921875 139.289062 157.925781 L 139.328125 157.929688 C 139.375 157.933594 139.421875 157.9375 139.472656 157.941406 L 144.5625 157.941406 C 144.621094 158.253906 144.839844 158.515625 145.128906 158.628906 C 144.957031 158.78125 144.753906 158.890625 144.527344 158.957031 C 144.785156 159.164062 145.117188 159.289062 145.472656 159.289062 C 146.257812 159.289062 146.902344 158.699219 146.984375 157.941406 L 160.433594 157.941406 C 160.488281 158.253906 160.707031 158.515625 161 158.628906 C 160.828125 158.78125 160.621094 158.890625 160.394531 158.957031 C 160.65625 159.164062 160.984375 159.289062 161.34375 159.289062 C 162.125 159.289062 162.769531 158.699219 162.851562 157.941406 L 165.996094 157.941406 L 166.082031 157.9375 L 166.105469 157.933594 L 166.128906 157.933594 L 166.15625 157.929688 L 166.195312 157.925781 L 166.25 157.914062 L 166.277344 157.914062 L 166.28125 157.910156 L 166.359375 157.894531 L 166.414062 157.878906 L 166.433594 157.871094 L 166.457031 157.863281 L 166.460938 157.863281 L 166.515625 157.84375 L 166.539062 157.832031 L 166.574219 157.820312 L 166.59375 157.8125 L 166.597656 157.808594 L 166.613281 157.800781 L 166.617188 157.800781 L 166.6875 157.765625 L 166.757812 157.722656 L 166.796875 157.699219 L 166.816406 157.683594 L 166.824219 157.679688 L 166.847656 157.664062 L 166.878906 157.640625 L 166.910156 157.613281 L 166.914062 157.613281 L 166.929688 157.601562 L 167.015625 157.523438 L 167.027344 157.511719 L 167.050781 157.484375 L 167.085938 157.449219 L 167.085938 157.445312 L 167.101562 157.425781 L 167.105469 157.425781 L 167.109375 157.417969 L 167.125 157.398438 L 167.140625 157.382812 L 167.152344 157.363281 L 167.199219 157.296875 L 167.265625 157.191406 L 167.285156 157.160156 L 167.324219 157.074219 L 167.339844 157.039062 C 167.371094 156.960938 167.398438 156.878906 167.414062 156.792969 L 167.421875 156.753906 L 167.4375 156.660156 L 167.441406 156.621094 C 167.445312 156.578125 167.449219 156.53125 167.449219 156.488281 L 167.453125 156.425781 L 167.484375 156.417969 L 167.523438 156.40625 L 167.585938 156.375 L 167.613281 156.355469 L 167.644531 156.332031 L 167.664062 156.308594 L 167.691406 156.277344 L 167.710938 156.25 L 167.730469 156.214844 L 167.742188 156.1875 L 167.757812 156.140625 L 167.761719 156.117188 L 167.769531 156.042969 L 167.769531 154.996094 L 167.761719 154.921875 L 167.757812 154.902344 " fill-opacity="1" fill-rule="nonzero"/><path fill="#ffffff" d="M 159.550781 149.257812 L 159.550781 152.078125 L 163.132812 152.078125 L 163.132812 149.257812 L 159.550781 149.257812 " fill-opacity="1" fill-rule="nonzero"/><path fill="#ffffff" d="M 151.59375 149.257812 L 151.59375 152.078125 L 155.5 152.078125 L 155.5 149.257812 L 151.59375 149.257812 " fill-opacity="1" fill-rule="nonzero"/><path fill="#ffffff" d="M 147.359375 149.257812 L 147.359375 152.078125 L 151.390625 152.078125 L 151.390625 149.257812 L 147.359375 149.257812 " fill-opacity="1" fill-rule="nonzero"/><path fill="#ffffff" d="M 140.683594 149.261719 C 140.039062 149.292969 139.738281 149.785156 139.5 150.503906 C 139.5 150.503906 138.851562 152.183594 138.542969 153.925781 L 140.671875 153.925781 L 140.671875 152.601562 L 140.683594 152.601562 L 140.683594 149.261719 " fill-opacity="1" fill-rule="nonzero"/><path fill="#ffffff" d="M 142.84375 149.257812 L 141.035156 149.257812 L 141.035156 152.601562 L 142.382812 152.601562 C 142.496094 152.445312 142.585938 152.296875 142.652344 152.160156 C 142.679688 152.105469 142.707031 152.089844 142.726562 152.082031 C 142.894531 151.679688 143.011719 151.253906 143.074219 150.832031 C 143.148438 150.328125 143.164062 149.6875 142.84375 149.257812 " fill-opacity="1" fill-rule="nonzero"/><path fill="#ffffff" d="M 143.417969 149.257812 C 143.808594 150.066406 143.621094 151.179688 143.269531 152.078125 L 147.15625 152.078125 L 147.15625 149.257812 L 143.417969 149.257812 " fill-opacity="1" fill-rule="nonzero"/><path fill="#ffffff" d="M 155.703125 149.257812 L 155.703125 152.078125 L 159.347656 152.078125 L 159.347656 149.257812 L 155.703125 149.257812 " fill-opacity="1" fill-rule="nonzero"/><path fill="#ffffff" d="M 165.625 149.257812 L 163.335938 149.257812 L 163.335938 152.078125 L 166.785156 152.078125 L 166.875 150.503906 C 166.875 149.816406 166.3125 149.257812 165.625 149.257812 " fill-opacity="1" fill-rule="nonzero"/><path fill="#3b4e70" d="M 162.863281 157.769531 C 162.863281 158.609375 162.179688 159.289062 161.34375 159.289062 C 160.503906 159.289062 159.824219 158.609375 159.824219 157.769531 C 159.824219 156.933594 160.503906 156.253906 161.34375 156.253906 C 162.179688 156.253906 162.863281 156.933594 162.863281 157.769531 " fill-opacity="1" fill-rule="nonzero"/><path fill="#ffffff" d="M 162.863281 157.769531 L 162.824219 157.769531 C 162.824219 158.589844 162.160156 159.25 161.34375 159.25 C 160.523438 159.25 159.863281 158.589844 159.859375 157.769531 C 159.863281 156.953125 160.523438 156.292969 161.34375 156.292969 C 162.160156 156.292969 162.824219 156.953125 162.824219 157.769531 L 162.898438 157.769531 C 162.898438 156.910156 162.203125 156.214844 161.34375 156.214844 C 160.480469 156.214844 159.785156 156.910156 159.785156 157.769531 C 159.785156 158.628906 160.480469 159.324219 161.34375 159.324219 C 162.203125 159.324219 162.898438 158.628906 162.898438 157.769531 L 162.863281 157.769531 " fill-opacity="1" fill-rule="nonzero"/><path fill="#3b4e70" d="M 146.996094 157.769531 C 146.996094 158.609375 146.3125 159.289062 145.472656 159.289062 C 144.636719 159.289062 143.957031 158.609375 143.957031 157.769531 C 143.957031 156.933594 144.636719 156.253906 145.472656 156.253906 C 146.3125 156.253906 146.996094 156.933594 146.996094 157.769531 " fill-opacity="1" fill-rule="nonzero"/><path fill="#ffffff" d="M 146.996094 157.769531 L 146.957031 157.769531 C 146.953125 158.589844 146.292969 159.25 145.472656 159.25 C 144.65625 159.25 143.996094 158.589844 143.992188 157.769531 C 143.996094 156.953125 144.65625 156.292969 145.472656 156.292969 C 146.292969 156.292969 146.953125 156.953125 146.957031 157.769531 L 147.03125 157.769531 C 147.03125 156.910156 146.335938 156.214844 145.472656 156.214844 C 144.613281 156.214844 143.917969 156.910156 143.917969 157.769531 C 143.917969 158.628906 144.613281 159.324219 145.472656 159.324219 C 146.335938 159.324219 147.03125 158.628906 147.03125 157.769531 L 146.996094 157.769531 " fill-opacity="1" fill-rule="nonzero"/><path fill="#d3d2d2" d="M 197.023438 196.273438 C 197.023438 197 189.019531 197.585938 179.152344 197.585938 C 169.28125 197.585938 161.277344 197 161.277344 196.273438 C 161.277344 195.550781 169.28125 194.964844 179.152344 194.964844 C 189.019531 194.964844 197.023438 195.550781 197.023438 196.273438 " fill-opacity="1" fill-rule="nonzero"/><g clip-path="url(#c220e42c97)"><path fill="#e84d27" d="M 204.351562 154.367188 C 205.050781 140.539062 193.109375 129.296875 179.242188 129.296875 C 165.375 129.296875 154.128906 140.523438 154.128906 154.367188 C 154.128906 170.464844 175.257812 194.964844 179.257812 194.964844 C 183.25 194.964844 203.636719 168.46875 204.351562 154.367188 " fill-opacity="1" fill-rule="nonzero"/></g><path fill="#ffffff" d="M 198.089844 152.800781 C 198.089844 163.183594 189.65625 171.601562 179.257812 171.601562 C 168.855469 171.601562 160.421875 163.183594 160.421875 152.800781 C 160.421875 142.414062 168.855469 133.996094 179.257812 133.996094 C 189.65625 133.996094 198.089844 142.414062 198.089844 152.800781 " fill-opacity="1" fill-rule="nonzero"/><path fill="#e84d27" d="M 185.777344 162.089844 L 185.777344 162.742188 C 185.777344 163.5625 186.441406 164.226562 187.265625 164.226562 C 188.085938 164.226562 188.75 163.5625 188.75 162.742188 L 188.75 162.089844 L 185.777344 162.089844 " fill-opacity="1" fill-rule="nonzero"/><path fill="#ffffff" d="M 185.777344 162.089844 L 185.726562 162.089844 L 185.726562 162.742188 C 185.726562 163.59375 186.414062 164.28125 187.265625 164.28125 C 188.117188 164.28125 188.804688 163.59375 188.804688 162.742188 L 188.804688 162.089844 L 188.789062 162.050781 L 188.75 162.035156 L 185.777344 162.035156 L 185.738281 162.050781 L 185.726562 162.089844 L 185.777344 162.089844 L 185.777344 162.144531 L 188.699219 162.144531 L 188.699219 162.742188 C 188.695312 163.53125 188.054688 164.171875 187.265625 164.175781 C 186.472656 164.171875 185.832031 163.53125 185.832031 162.742188 L 185.832031 162.089844 L 185.777344 162.089844 L 185.777344 162.144531 L 185.777344 162.089844 " fill-opacity="1" fill-rule="nonzero"/><path fill="#e84d27" d="M 169.964844 162.089844 L 169.964844 162.742188 C 169.964844 163.5625 170.628906 164.226562 171.449219 164.226562 C 172.273438 164.226562 172.9375 163.5625 172.9375 162.742188 L 172.9375 162.089844 L 169.964844 162.089844 " fill-opacity="1" fill-rule="nonzero"/><path fill="#ffffff" d="M 169.964844 162.089844 L 169.910156 162.089844 L 169.910156 162.742188 C 169.910156 163.59375 170.601562 164.28125 171.449219 164.28125 C 172.300781 164.28125 172.988281 163.59375 172.988281 162.742188 L 172.988281 162.089844 L 172.976562 162.050781 L 172.9375 162.035156 L 169.964844 162.035156 L 169.925781 162.050781 L 169.910156 162.089844 L 169.964844 162.089844 L 169.964844 162.144531 L 172.882812 162.144531 L 172.882812 162.742188 C 172.882812 163.53125 172.242188 164.171875 171.449219 164.175781 C 170.65625 164.171875 170.019531 163.53125 170.015625 162.742188 L 170.015625 162.089844 L 169.964844 162.089844 L 169.964844 162.144531 L 169.964844 162.089844 " fill-opacity="1" fill-rule="nonzero"/><path fill="#e84d27" d="M 190.25 146.125 L 190.25 146.113281 C 190.457031 146.027344 190.609375 145.820312 190.609375 145.578125 L 190.609375 144.058594 C 190.609375 143.738281 190.347656 143.480469 190.027344 143.480469 C 189.933594 143.480469 189.84375 143.5 189.765625 143.542969 L 189.707031 143.574219 C 189.652344 143.609375 189.609375 143.652344 189.570312 143.703125 L 189.570312 143.660156 C 189.570312 143.609375 189.566406 143.5625 189.554688 143.515625 C 189.410156 142.308594 188.382812 141.375 187.136719 141.375 L 171.613281 141.375 C 170.367188 141.375 169.34375 142.308594 169.199219 143.515625 C 169.1875 143.5625 169.183594 143.609375 169.183594 143.660156 L 169.183594 143.664062 C 169.074219 143.550781 168.925781 143.480469 168.757812 143.480469 C 168.441406 143.480469 168.179688 143.738281 168.179688 144.058594 L 168.179688 145.578125 C 168.179688 145.8125 168.320312 146.011719 168.519531 146.105469 L 168.519531 146.132812 C 168.257812 146.265625 168.070312 146.539062 168.070312 146.855469 L 168.070312 148.390625 C 168.070312 148.832031 168.433594 149.191406 168.878906 149.191406 C 168.984375 149.191406 169.085938 149.171875 169.183594 149.132812 L 169.183594 161.511719 C 169.183594 161.847656 169.457031 162.121094 169.792969 162.121094 L 188.960938 162.121094 C 189.296875 162.121094 189.570312 161.847656 189.570312 161.511719 L 189.570312 149.117188 C 189.675781 149.164062 189.789062 149.191406 189.910156 149.191406 C 190.355469 149.191406 190.714844 148.832031 190.714844 148.390625 L 190.714844 146.855469 C 190.714844 146.53125 190.523438 146.253906 190.25 146.125 " fill-opacity="1" fill-rule="nonzero"/><path fill="#ffffff" d="M 173.503906 157.992188 C 173.503906 158.644531 172.976562 159.171875 172.324219 159.171875 C 171.671875 159.171875 171.140625 158.644531 171.140625 157.992188 C 171.140625 157.34375 171.671875 156.816406 172.324219 156.816406 C 172.976562 156.816406 173.503906 157.34375 173.503906 157.992188 " fill-opacity="1" fill-rule="nonzero"/><path fill="#ffffff" d="M 187.644531 157.992188 C 187.644531 158.644531 187.113281 159.171875 186.464844 159.171875 C 185.8125 159.171875 185.28125 158.644531 185.28125 157.992188 C 185.28125 157.34375 185.8125 156.816406 186.464844 156.816406 C 187.113281 156.816406 187.644531 157.34375 187.644531 157.992188 " fill-opacity="1" fill-rule="nonzero"/><path fill="#ffffff" d="M 187.820312 144.40625 L 170.933594 144.40625 L 170.933594 150.980469 C 170.933594 151.019531 170.941406 151.058594 170.949219 151.097656 C 171.066406 152.097656 171.917969 152.871094 172.949219 152.871094 L 185.804688 152.871094 C 186.835938 152.871094 187.6875 152.097656 187.804688 151.097656 C 187.8125 151.058594 187.820312 151.019531 187.820312 150.980469 L 187.820312 144.40625 " fill-opacity="1" fill-rule="nonzero"/><path fill="#ffffff" d="M 182.632812 143.835938 L 176.121094 143.835938 L 176.121094 142.335938 L 182.632812 142.335938 L 182.632812 143.835938 " fill-opacity="1" fill-rule="nonzero"/><path fill="#e84d27" d="M 181.121094 163.03125 L 177.632812 163.03125 L 177.632812 160.941406 L 181.121094 160.941406 L 181.121094 163.03125 " fill-opacity="1" fill-rule="nonzero"/><path fill="#ffffff" d="M 181.121094 163.03125 L 181.121094 162.976562 L 177.683594 162.976562 L 177.683594 160.996094 L 181.066406 160.996094 L 181.066406 163.03125 L 181.121094 163.03125 L 181.121094 162.976562 L 181.121094 163.03125 L 181.171875 163.03125 L 181.171875 160.941406 L 181.160156 160.90625 L 181.121094 160.890625 L 177.632812 160.890625 L 177.59375 160.90625 L 177.578125 160.941406 L 177.578125 163.03125 L 177.59375 163.070312 L 177.632812 163.085938 L 181.121094 163.085938 L 181.160156 163.070312 L 181.171875 163.03125 L 181.121094 163.03125 " fill-opacity="1" fill-rule="nonzero"/></svg>